<svg width="307" height="332" viewBox="0 0 307 332" fill="none" xmlns="http://www.w3.org/2000/svg">
<path d="M301.592 135.65C300.342 133.675 296.467 128.525 284.609 123.217C266.184 114.967 256.484 120.717 229.726 113.25C226.251 112.283 222.292 111.167 217.117 109.075C207.967 105.383 198.792 100.183 175.934 81.1917C170.017 76.275 162.309 69.7083 153.434 61.6917C153.742 72.0333 154.051 82.3833 154.359 92.7167C154.667 103.058 154.976 113.408 155.284 123.742C163.342 135.125 181.267 156.892 211.959 169.533C225.267 175.017 237.559 177.367 247.301 178.35V254.117C245.876 256.992 240.542 266.875 229.342 270.508C226.126 271.55 223.134 271.85 220.667 271.833H87.4173C72.8423 271.833 60.784 261.025 58.8174 246.992C58.634 245.675 58.5341 244.325 58.5341 242.958C58.5341 241.592 58.634 240.242 58.8174 238.925L57.9673 143.692C57.9257 143.008 57.9007 142.317 57.9007 141.633C57.9007 140.883 57.9257 140.15 57.9673 139.417C58.109 137.217 58.4423 135.1 58.959 133.075C60.5673 126.75 72.984 111.867 73.1673 110.325C78.909 102.6 87.584 92.7917 100.009 83.8C120.784 68.7667 141.509 63.6583 153.442 61.6917C153.317 41.125 153.201 20.5667 153.076 0C142.842 1.78333 131.176 4.54168 118.617 8.86668C99.4424 15.4667 83.8173 23.7667 71.8756 31.3083C53.2506 41.725 41.9424 52.5917 35.284 60.1833C30.3674 65.8 30.6674 66.5583 17.2757 83.0667C9.53404 92.6 2.55903 116.55 2.26737 120.225C1.5757 128.95 0.24229 183.825 0.000622837 259.175C-0.0910438 287.908 9.95898 296.475 14.709 302.55C29.534 321.5 51.5923 327.433 62.7423 329.525C169.326 331.833 248.267 331.475 270.734 329.525C277.659 328.925 288.526 327.367 296.467 319.217C303.117 312.392 305.001 303.725 305.651 298.633V155.825C306.126 151.833 306.517 143.417 301.617 135.667L301.592 135.65Z" fill="url(#paint0_linear_1_632)"/>
<path d="M252.201 117.358C242.517 116.15 232.868 114.95 221.543 110.783C212.609 107.492 206.409 103.75 201.309 100.633C197.268 98.1668 191.976 94.6501 175.942 81.1918C160.792 68.4751 153.926 61.3001 153.442 61.6918C151.284 63.4418 170.759 114.725 216.968 141.092C242.651 155.75 269.259 158.508 272.809 176.542C273.701 181.075 273.459 268.592 273.193 280.033C273.043 286.508 272.818 288.342 271.284 289.75C268.101 292.683 261.192 292.033 256.576 288.925C245.042 281.15 246.026 256.767 246.026 256.767C246.026 256.767 242.793 261.483 241.226 263.375C239.276 265.725 235.826 268.642 229.251 270.542C228.834 270.542 217.543 270.617 217.126 270.617C176.376 270.875 168.234 270.908 154.801 271.017C144.742 271.092 130.167 271.217 112.301 271.417C102.467 271.433 92.6342 271.458 82.8009 271.475C80.2676 270.983 70.2342 268.742 63.7092 259.442C60.3592 254.667 59.2426 249.892 58.8259 247.008C58.8759 209.033 58.9258 171.058 58.9675 133.083C59.9925 118.817 63.4508 97.8334 74.8008 75.3834C74.8008 75.3834 95.0425 35.3251 133.693 12.9168C140.951 8.70844 148.259 5.65011 148.259 5.65011C149.868 3.76678 151.476 1.89179 153.076 0.00845337C144.434 1.52512 135.076 3.67513 125.226 6.70846C100.076 14.4585 79.9342 25.4251 64.9008 35.4334C61.3425 37.9834 34.6592 57.3668 20.8508 78.6168C17.8925 83.1668 13.9175 90.2834 10.5508 97.0584C5.09251 108.05 3.58424 113.417 3.11757 115.167C1.60091 120.833 1.05081 125.692 0.834147 129.083C0.559147 174.95 0.284155 220.825 0.00915527 266.692C0.575822 283.625 8.08418 299.242 20.6592 305.383C39.6092 314.642 70.6842 302.667 82.8092 271.467C131.626 271.158 180.443 270.85 229.259 270.533C231.518 269.875 235.326 268.45 239.143 265.292C242.859 262.208 244.951 258.833 246.026 256.767C243.293 297.792 256.668 326.625 272.634 329.325C282.967 331.075 295.018 321.992 301.334 312.525C308.543 301.742 306.726 292.825 305.626 263.833C305.192 252.392 305.334 226.408 305.626 174.442C305.684 164.108 305.801 155.658 305.893 150.233C305.634 140.642 302.151 135.033 300.259 132.508C292.876 122.675 280.184 120.583 269.034 118.742C261.876 117.558 263.059 118.708 252.201 117.358Z" fill="url(#paint1_linear_1_632)"/>
<path d="M296.334 65.175C296.334 71.7083 294.167 77.725 290.501 82.5667C285.242 89.5417 276.876 94.05 267.451 94.05C258.026 94.05 249.667 89.5417 244.401 82.5667C240.734 77.7333 238.567 71.7083 238.567 65.175C238.567 62.1917 239.017 59.3167 239.859 56.6167C243.509 44.85 254.484 36.3 267.442 36.3C270.692 36.3 273.817 36.8333 276.742 37.825C288.126 41.7 296.326 52.4833 296.326 65.175H296.334Z" fill="url(#paint2_linear_1_632)"/>
<path d="M284.617 65.175C284.617 70.3833 282.892 75.1833 279.967 79.0333C275.776 84.6 269.101 88.1917 261.601 88.1917C254.101 88.1917 247.426 84.6 243.234 79.0333C240.309 75.175 238.584 70.375 238.584 65.175C238.584 62.8 238.942 60.5083 239.617 58.35C242.526 48.9667 251.276 42.1583 261.609 42.1583C264.201 42.1583 266.692 42.5833 269.017 43.375C278.092 46.4667 284.626 55.0583 284.626 65.175H284.617Z" fill="url(#paint3_linear_1_632)"/>
<path d="M274.326 65.175C274.326 69.2167 272.984 72.9417 270.717 75.9417C267.459 80.2584 262.284 83.05 256.451 83.05C250.617 83.05 245.442 80.2584 242.184 75.9417C239.917 72.95 238.576 69.2167 238.576 65.175C238.576 63.325 238.851 61.55 239.376 59.875C241.634 52.5917 248.426 47.3 256.451 47.3C258.459 47.3 260.401 47.6334 262.209 48.2417C269.251 50.6417 274.326 57.3167 274.326 65.175Z" fill="url(#paint4_linear_1_632)"/>
<defs>
<linearGradient id="paint0_linear_1_632" x1="305.892" y1="165.55" x2="-0.00771259" y2="165.55" gradientUnits="userSpaceOnUse">
<stop stop-color="#77D5F3"/>
<stop offset="1" stop-color="#88FFA9"/>
</linearGradient>
<linearGradient id="paint1_linear_1_632" x1="18.3675" y1="77.7835" x2="277.809" y2="337.217" gradientUnits="userSpaceOnUse">
<stop stop-color="#77D5F3"/>
<stop offset="1" stop-color="#88FFA9"/>
</linearGradient>
<linearGradient id="paint2_linear_1_632" x1="238.576" y1="65.175" x2="296.334" y2="65.175" gradientUnits="userSpaceOnUse">
<stop stop-color="#90D5EE"/>
<stop offset="1" stop-color="#FF9CED"/>
</linearGradient>
<linearGradient id="paint3_linear_1_632" x1="239.959" y1="73.0583" x2="283.234" y2="57.3083" gradientUnits="userSpaceOnUse">
<stop stop-color="#90D5EE"/>
<stop offset="1" stop-color="#FF9CED"/>
</linearGradient>
<linearGradient id="paint4_linear_1_632" x1="242.759" y1="76.6667" x2="270.142" y2="53.6917" gradientUnits="userSpaceOnUse">
<stop stop-color="#90D5EE"/>
<stop offset="1" stop-color="#FF9CED"/>
</linearGradient>
</defs>
</svg>
