<svg width="242" height="287" viewBox="0 0 242 287" fill="none" xmlns="http://www.w3.org/2000/svg">
<path d="M121.426 231.745C120.973 231.745 120.503 231.713 120.017 231.656L120.584 217.94C120.584 217.94 120.754 217.932 121.135 217.859L164.845 209.773L125.621 230.708C124.52 231.3 123.321 231.64 122.066 231.729H121.985C121.815 231.745 121.62 231.753 121.426 231.753V231.745Z" fill="white"/>
<path d="M122.382 224.632C122.131 224.761 121.871 224.834 121.588 224.859C121.539 224.859 121.483 224.859 121.426 224.859C121.264 224.859 121.078 224.851 120.867 224.818C121.288 224.802 121.807 224.737 122.382 224.632ZM207.348 194.922L119.879 211.094H119.823C119.823 211.094 119.993 211.077 120.3 211.069L119.175 238.502C119.936 238.599 120.697 238.648 121.426 238.648C121.75 238.648 122.066 238.64 122.382 238.624H122.463L122.544 238.616C124.771 238.462 126.893 237.854 128.861 236.809L207.356 194.939L207.348 194.922Z" fill="white"/>
<path d="M120.592 231.713C120.13 231.713 119.685 231.689 119.256 231.632C118.033 231.462 116.931 231.089 115.919 230.514L72.071 205.601L120.989 217.842C121.434 217.956 121.637 217.98 121.637 217.98L121.224 231.697C121.005 231.705 120.794 231.713 120.592 231.713Z" fill="white"/>
<path d="M119.32 224.527C119.912 224.672 120.438 224.778 120.867 224.826C120.77 224.826 120.681 224.826 120.592 224.826C120.422 224.826 120.268 224.818 120.138 224.802C119.863 224.761 119.588 224.672 119.32 224.518M24.7084 186.65L112.517 236.501C114.291 237.506 116.202 238.162 118.211 238.446H118.292L118.373 238.47C119.094 238.559 119.839 238.608 120.592 238.608C120.908 238.608 121.232 238.608 121.58 238.583L122.406 211.142C122.649 211.167 122.779 211.199 122.779 211.199C122.738 211.199 122.698 211.183 122.657 211.167L24.7084 186.659V186.65Z" fill="white"/>
<path d="M164.245 198.981L164.934 209.733L165.298 215.38C156.26 219.39 139.851 225.207 118.916 224.462C100.126 223.789 85.8231 218.061 77.9833 214.237C77.8862 212.706 77.789 211.167 77.6837 209.635L76.9791 198.633C76.647 193.44 78.9228 189.17 82.0571 189.146L156.624 188.522C160.431 188.489 163.873 193.197 164.245 198.981Z" fill="#F7FBFF" stroke="white" stroke-width="17" stroke-miterlimit="10"/>
<path d="M45.4903 144.448C44.7209 144.448 43.9353 144.399 43.1659 144.294C32.7993 142.933 25.0405 132.652 25.8828 121.382C26.6684 110.874 34.5892 102.958 44.316 102.958C45.2879 102.958 46.2678 103.039 47.2397 103.201C57.4282 104.895 64.7578 114.917 63.9317 126.024C63.1461 136.524 55.2253 144.448 45.4903 144.448Z" fill="url(#paint0_linear_1_283)"/>
<path d="M44.316 109.845C44.9072 109.845 45.5065 109.894 46.114 109.991C52.7632 111.093 57.6226 118.036 57.0638 125.506C56.5454 132.441 51.5403 137.553 45.4903 137.553C45.0206 137.553 44.5427 137.521 44.0649 137.456C37.2861 136.565 32.1757 129.589 32.7507 121.884C33.2771 114.876 38.3147 109.837 44.316 109.837M44.3241 96.0718C30.9528 96.0718 20.0758 106.734 19.0229 120.872C18.5046 127.847 20.4565 134.766 24.5302 140.348C28.9199 146.368 35.2209 150.192 42.2751 151.124C43.3441 151.262 44.4213 151.335 45.4903 151.335C58.8617 151.335 69.7386 140.672 70.7915 126.535C71.8767 111.911 62.0284 98.6725 48.3574 96.404C47.0211 96.1852 45.6604 96.0718 44.3079 96.0718H44.3241Z" fill="white"/>
<path d="M57.493 191.187C52.5769 191.187 33.9736 186.496 25.5264 184.301C15.8724 183.491 8.15416 177.139 7.0203 168.964C6.45338 164.856 7.62771 160.498 10.3409 156.698L11.0292 155.734L12.0012 155.053C16.5609 151.861 21.2583 149.682 25.9719 148.572C28.0533 148.077 29.9646 147.843 31.8193 147.843C35.7635 147.843 39.1002 148.904 43.3279 150.249C45.0449 150.792 46.9886 151.415 49.3211 152.08C49.5965 152.161 56.2134 154.057 62.8869 156.187C66.8797 157.468 70.0788 158.569 72.3789 159.461C75.3431 160.611 82.2759 163.301 80.4536 169.88L80.4212 169.985C80.4212 169.985 80.2025 170.706 79.9596 171.281C79.7895 171.678 79.6518 171.937 79.6518 171.937L79.5465 172.14L79.3926 172.391C78.4936 173.858 77.4165 174.724 76.2745 175.64C75.9182 175.924 75.4889 176.272 74.9706 176.709C74.517 177.09 71.8767 179.513 69.7386 181.643C67.0902 184.285 66.2075 185.565 65.6162 186.407C65.0979 187.153 64.4581 188.076 63.389 188.968L63.2675 189.073L63.138 189.17C62.8627 189.381 62.1175 189.915 61.178 190.377C60.1009 190.912 58.8941 191.171 57.5092 191.171L57.493 191.187Z" fill="url(#paint1_linear_1_283)"/>
<path d="M31.8192 154.729C35.9578 154.729 39.4809 156.431 47.4259 158.707C47.4259 158.707 74.274 166.396 73.8204 168.041C73.8204 168.057 73.699 168.421 73.6342 168.559C73.5694 168.705 73.5208 168.794 73.5208 168.794C73.1158 169.45 72.3222 169.936 70.5242 171.451C69.8763 171.994 67.0821 174.571 64.8711 176.774C60.1089 181.522 59.9955 182.835 58.967 183.693C58.967 183.693 58.5782 183.985 58.1246 184.212C58.0031 184.269 57.7926 184.293 57.4929 184.293C52.8846 184.293 28.0937 177.844 26.644 177.463C19.7113 177.09 14.5199 172.934 13.8396 168.008C13.3779 164.646 15.1354 161.826 15.9453 160.684C18.5613 158.853 22.6269 156.422 27.5511 155.264C29.1385 154.891 30.5072 154.721 31.8111 154.721M31.8192 140.956C29.4219 140.956 26.9922 141.256 24.3925 141.872C18.8366 143.184 13.3374 145.72 8.06502 149.414L6.12125 150.775L4.74437 152.704C1.00265 157.946 -0.609021 164.054 0.208974 169.92C1.75587 181.101 11.7824 189.81 24.3358 191.115C51.1677 198.09 55.9217 198.09 57.501 198.09C59.9307 198.09 62.1903 197.588 64.207 196.591C65.6243 195.895 66.742 195.109 67.2765 194.696L67.5356 194.501L67.7867 194.291C69.5766 192.8 70.6294 191.277 71.2611 190.369C71.7309 189.689 72.3789 188.757 74.5899 186.553C76.4931 184.657 78.9066 182.429 79.433 181.984C79.8947 181.595 80.2672 181.295 80.583 181.044C81.9113 179.975 83.7335 178.508 85.2561 176.029L85.5396 175.567L85.7907 175.081C85.9041 174.862 86.0822 174.498 86.2766 174.052C86.6978 173.08 86.9975 172.067 87.0299 171.954L87.0622 171.857L87.0865 171.759C88.4876 166.712 87.289 159.299 79.2953 155.037C78.1291 154.413 76.728 153.789 74.8733 153.076C72.4436 152.137 69.1149 150.986 64.9925 149.666C58.2137 147.502 51.5078 145.574 51.2243 145.493C48.989 144.853 47.0939 144.254 45.4255 143.719C40.8172 142.252 36.8406 140.988 31.8273 140.988L31.8192 140.956Z" fill="white"/>
<path d="M21.6226 183.013C17.0548 182.348 13.0944 180.218 10.4866 177.009C5.26275 170.601 5.75676 160.652 11.5799 153.101C26.4658 124.679 28.3448 123.983 30.9283 123.019C31.9164 122.654 32.8235 122.484 33.1637 122.427L33.3256 122.403L33.4876 122.387C33.8521 122.346 34.2246 122.322 34.5972 122.322C35.4881 122.322 36.2331 122.443 36.8892 122.541C37.7719 122.678 38.9868 122.873 41.6432 122.873C42.0968 122.873 42.5908 122.873 43.1253 122.856C46.0976 122.784 49.645 122.549 50.2281 122.484C50.9003 122.411 51.4349 122.338 51.8803 122.281C52.755 122.168 53.5163 122.062 54.3748 122.062C55.0713 122.062 55.7273 122.127 56.3833 122.273L56.6101 122.322L56.8935 122.403C56.8935 122.403 57.1771 122.484 57.5658 122.63C58.1651 122.848 58.8454 123.197 58.8535 123.205C64.8063 126.373 62.2875 132.943 61.0807 136.103C60.2061 138.388 58.8941 141.458 57.1771 145.226C54.3101 151.529 51.3053 157.622 51.1838 157.873C50.131 160.012 49.2887 161.843 48.5517 163.463C45.9276 169.207 44.0325 173.355 38.1445 177.285C34.1679 179.942 29.4057 181.846 23.9875 182.94L22.8132 183.175L21.6307 183.005L21.6226 183.013Z" fill="url(#paint2_linear_1_283)"/>
<path d="M54.3667 128.957C54.5692 128.957 54.7474 128.973 54.9175 129.014C54.9175 129.014 55.0228 129.046 55.1685 129.095C55.3143 129.152 55.6626 129.314 55.6788 129.322C57.1933 130.132 45.0125 154.834 45.0125 154.834C40.2665 164.467 39.8777 167.862 34.3299 171.565C30.2076 174.319 25.7127 175.575 22.627 176.199C21.2502 175.996 18.0025 175.316 15.84 172.658C12.6734 168.77 13.054 162.142 17.3951 156.876C18.124 155.483 31.3738 130.213 33.35 129.476C33.8116 129.305 34.2895 129.224 34.2895 129.224C34.4029 129.208 34.5081 129.208 34.6134 129.208C35.6905 129.208 36.9297 129.759 41.6595 129.759C42.1617 129.759 42.7124 129.759 43.3036 129.735C46.3974 129.662 50.1472 129.419 50.9814 129.33C52.7713 129.135 53.7026 128.949 54.383 128.949M54.3667 115.184C53.0547 115.184 51.9452 115.33 50.9652 115.459C50.5765 115.508 50.0986 115.573 49.5155 115.638C48.8352 115.702 45.6037 115.913 42.9553 115.97C42.4856 115.978 42.0483 115.986 41.6433 115.986C39.5295 115.986 38.6953 115.856 37.9664 115.735C37.197 115.613 36.0308 115.427 34.5973 115.427C33.9655 115.427 33.3338 115.459 32.7101 115.532L32.3862 115.573L32.0623 115.621C31.3901 115.735 30.0295 116.002 28.523 116.561C23.1048 118.579 20.5617 122.33 12.8434 136.241C9.83866 141.653 6.94742 147.113 5.74878 149.39C-1.64557 159.404 -1.96953 172.61 5.14136 181.352C8.85068 185.905 14.3499 188.911 20.6347 189.818L22.9995 190.158L25.3482 189.68C31.6411 188.4 37.2294 186.156 41.9511 183.005C49.4669 177.989 51.9371 172.586 54.796 166.323C55.5168 164.751 56.3267 162.969 57.3391 160.919C57.4687 160.66 60.5139 154.478 63.4295 148.077C65.2032 144.172 66.5719 140.972 67.4952 138.558C68.1998 136.719 68.6777 135.26 68.9935 133.98C71.1397 125.4 66.6367 119.551 62.1256 117.153C61.7531 116.958 60.8378 116.505 59.955 116.172C59.4772 115.994 59.0804 115.873 58.8374 115.8L58.3353 115.646L57.825 115.532C56.7074 115.289 55.5411 115.168 54.3586 115.168L54.3667 115.184Z" fill="white"/>
<path d="M38.5252 129.216L51.103 131.112C53.6217 131.493 55.5169 132.611 55.3387 133.608L55.1848 134.434C55.0066 135.43 52.8037 135.949 50.285 135.584L37.691 133.753C35.0751 133.373 33.0747 132.222 33.269 131.201L33.4229 130.351C33.6091 129.33 35.9174 128.819 38.5252 129.208V129.216Z" fill="url(#paint3_radial_1_283)" stroke="white" stroke-width="17" stroke-miterlimit="10"/>
<path d="M133.178 267.815C132.716 267.815 132.319 267.807 131.979 267.798C129.825 267.742 128.164 267.539 126.553 267.345C126.115 267.296 125.662 267.239 125.192 267.183C119.604 266.559 108.022 265.279 94.8616 260.264C78.3154 253.96 64.9926 243.955 55.2739 230.514C39.9749 209.368 36.2738 183.952 37.9097 167.222C38.0879 165.415 38.2661 164.232 38.4847 162.734C38.7196 161.162 39.0111 159.201 39.4728 155.499C40.6309 146.052 41.3437 136.427 41.5786 126.899C41.7163 121.22 41.6839 117.023 41.6677 115.638V115.289C41.6677 115.095 42.4128 93.7463 51.1758 70.1213C62.2228 40.3389 80.8261 21.891 104.985 16.7706C109.44 15.8308 114.016 15.3447 118.6 15.3447C157.872 15.3447 192.397 49.8829 199.856 74.6422C203.128 85.5149 204.473 92.5068 204.53 92.7984C205.963 100.349 206.579 106.92 207.073 112.202C207.802 119.996 208.328 125.635 210.75 127.742C213.981 130.561 219.367 141.871 222.509 152.444C226.081 164.476 228.818 182.875 221.521 202.198C215.747 217.502 205.825 225.977 187.805 241.362C162.204 263.221 143.957 267.807 133.162 267.807L133.178 267.815Z" fill="url(#paint4_radial_1_283)"/>
<path d="M118.608 22.2476C154.851 22.2476 186.785 55.1006 193.272 76.6434C196.479 87.2893 197.775 94.0948 197.775 94.0948C201.63 114.43 199.265 126.875 206.238 132.951C207.453 134.013 212.442 142.706 215.925 154.421C218.241 162.207 222.428 180.355 215.099 199.783C209.948 213.427 201.088 221.002 183.351 236.137C156.146 259.365 138.985 260.936 133.178 260.936C132.789 260.936 132.457 260.936 132.174 260.92C129.784 260.855 128.124 260.588 125.953 260.345C115.465 259.178 81.8142 255.451 60.846 226.479C47.2154 207.634 43.1578 184.228 44.7614 167.895C45.0935 164.516 45.4013 163.698 46.3084 156.341C47.7581 144.529 48.2764 134.41 48.4627 127.069C48.6247 120.677 48.5599 116.067 48.5518 115.249C48.5356 112.405 53.5002 34.7326 106.419 23.5115C110.517 22.6446 114.591 22.2395 118.608 22.2395M118.608 8.47445C113.538 8.47445 108.476 9.00107 103.56 10.0462C76.9791 15.6851 56.6346 35.6319 44.721 67.7314C36.4034 90.1654 34.7593 111.976 34.7755 115.338V115.702C34.7917 117.055 34.8241 121.163 34.6864 126.729C34.4515 136.046 33.7631 145.444 32.6292 154.664C32.1838 158.278 31.9004 160.182 31.6655 161.713C31.4387 163.244 31.2362 164.565 31.0419 166.55C29.2844 184.536 33.2529 211.847 49.6776 234.549C60.1981 249.091 74.5737 259.907 92.3915 266.697C106.37 272.02 118.543 273.373 124.399 274.021C124.868 274.069 125.298 274.126 125.719 274.175C127.395 274.377 129.298 274.604 131.769 274.669C132.165 274.677 132.627 274.685 133.162 274.685C145.116 274.685 165.08 269.808 192.276 246.588C210.539 230.992 221.562 221.577 227.96 204.62C235.929 183.499 232.981 163.52 229.102 150.476C226.591 142.025 220.954 127.847 215.56 122.816C214.807 121.123 214.297 115.621 213.916 111.554C213.406 106.126 212.774 99.3772 211.284 91.5103C211.227 91.2025 209.818 83.8622 206.441 72.6492C202.213 58.6168 190.761 42.9316 175.803 30.6897C158.285 16.3495 137.972 8.45825 118.592 8.45825L118.608 8.47445Z" fill="white"/>
<path d="M52.2529 111.117C51.3863 111.117 50.5198 111.003 49.6856 110.768C43.6195 109.099 39.8696 102.043 39.3918 91.4131L39.3674 90.7812L39.4566 90.1573C45.0449 50.3367 70.1598 18.8043 103.446 9.81124C108.379 8.48254 116.275 6.88647 125.848 6.88647C140.11 6.88647 153.239 10.3622 164.877 17.2163C171.057 20.8541 182.768 29.2152 191.733 44.3089C201.104 60.0913 202.861 75.5659 202.691 85.7742L202.61 90.4328L194.876 93.3737L194.503 93.471C193.337 93.7707 192.146 93.9247 190.964 93.9247C189.781 93.9247 188.623 93.7707 187.497 93.471C187.149 93.3818 186.817 93.2765 186.485 93.155C184.638 95.4802 182.355 96.9142 179.722 97.3436C179.228 97.4247 178.726 97.4652 178.216 97.4652C173.365 97.4652 169.915 94.1758 163.954 88.1805C162.731 89.1446 161.451 90.0277 160.123 90.8379C157.774 92.2719 155.256 93.471 152.64 94.3946L149.7 95.4397L146.978 93.9166C145.043 92.8309 143.22 91.5589 141.552 90.1249C140.823 89.5011 140.127 88.8448 139.463 88.1643C138.912 88.8286 138.337 89.4768 137.746 90.1006C134.717 93.2522 131.153 95.7962 127.152 97.6434L124.722 98.7696L122.171 97.9594C120.511 97.4328 115.506 95.8367 111.424 91.2997C107.804 96.2499 103.746 98.9478 100.887 100.358L96.6271 102.456L85.896 92.4582C82.6807 97.3355 78.3397 101.419 72.4518 101.484H72.3302C68.0216 101.484 65.0412 99.1261 63.0246 97.1087C62.3118 98.7858 61.3967 101.419 60.4005 105.518L59.6068 108.775L56.5535 110.161C55.1524 110.801 53.6945 111.125 52.2448 111.125L52.2529 111.117Z" fill="url(#paint5_radial_1_283)"/>
<path d="M125.848 13.7731C136.506 13.7731 149.133 15.9363 161.386 23.147C164.302 24.8646 176.661 32.4155 185.813 47.8252C195.256 63.7292 195.92 78.9606 195.799 85.6528C194.795 86.0336 193.79 86.4225 192.778 86.8032C192.316 86.9248 191.685 87.0382 190.948 87.0382C190.421 87.0382 189.846 86.9815 189.247 86.8195C185.489 85.8229 184.169 81.853 184.055 81.4884C183.812 82.6875 182.257 89.9549 178.597 90.5544C178.467 90.5787 178.346 90.5868 178.208 90.5868C176.078 90.5868 173.292 87.8322 168.109 82.6146C166.448 80.9375 165.112 79.4954 164.205 78.4826C162.545 80.3866 160.05 82.8252 156.527 84.9722C154.275 86.3495 152.137 87.2813 150.331 87.9213C148.995 87.1759 147.521 86.1956 146.031 84.9155C142.151 81.5694 140.07 77.7778 138.969 75.25C138.151 77.5752 136.417 81.537 132.765 85.3368C129.647 88.5775 126.383 90.4167 124.245 91.4051C122.479 90.8461 119.102 89.6632 116.389 86.5359C112.129 81.6424 111.489 75.3067 111.359 73.581C110.978 76.0116 109.885 81.2859 106.484 86.3576C103.252 91.1701 99.5995 93.3171 97.842 94.184C93.1851 89.8495 88.5767 85.5556 84.017 81.3102C81.4253 87.184 77.3354 94.5486 72.3707 94.5972C72.3545 94.5972 72.3384 94.5972 72.3222 94.5972C67.9973 94.5972 65.9402 88.1806 62.4334 88.1806C62.2876 88.1806 62.1336 88.1887 61.9798 88.213C59.5906 88.5857 56.6183 91.8669 53.7027 103.89C53.1438 104.141 52.6578 104.238 52.2367 104.238C51.9613 104.238 51.7103 104.198 51.4998 104.141C48.7056 103.372 46.5674 98.1458 46.2597 91.1215C51.4268 54.2905 74.7276 24.7025 105.228 16.4711C110.007 15.1829 117.288 13.7894 125.832 13.7894M125.848 0C115.522 0 106.994 1.71759 101.657 3.15972C83.8227 7.97222 67.8435 18.8206 55.4521 34.522C43.4008 49.7859 35.5124 68.6956 32.6373 89.1933L32.4591 90.4491L32.5158 91.713C33.1232 105.527 38.7196 114.892 47.8552 117.404C49.2807 117.801 50.7627 117.995 52.2448 117.995C54.6907 117.995 57.0962 117.461 59.4044 116.415L65.5109 113.645L66.985 107.568C68.5886 108.063 70.3622 108.362 72.3303 108.362H72.5165C78.2911 108.297 82.8913 105.778 86.4872 102.416L88.4553 104.247L95.4042 110.72L103.924 106.523C106.864 105.073 109.618 103.161 112.112 100.844C115.587 103.088 118.713 104.084 120.082 104.522L125.184 106.142L130.043 103.89C133.631 102.229 136.919 100.106 139.876 97.5544C141.074 98.4132 142.321 99.2072 143.609 99.9282L149.052 102.983L154.94 100.9C157.799 99.8877 160.568 98.5914 163.168 97.0521C167.922 101.476 172.247 104.36 178.216 104.36C179.091 104.36 179.973 104.287 180.832 104.149C182.978 103.793 185.853 102.894 188.672 100.69C189.433 100.771 190.194 100.819 190.956 100.819C192.713 100.819 194.479 100.593 196.204 100.155L196.949 99.9607L197.67 99.6852L200.691 98.5347L209.397 95.2211L209.559 85.9039C209.753 74.8044 207.834 57.9768 197.637 40.809C187.886 24.3947 175.106 15.272 168.36 11.294C155.644 3.80787 141.341 0.0162072 125.832 0.0162072L125.848 0Z" fill="white"/>
<path d="M93.1933 134.985C93.7602 143.759 87.3296 151.27 79.0039 151.748C70.8563 152.21 63.9317 145.736 63.389 137.302C62.8464 128.86 68.8721 121.382 76.9953 120.588C85.2968 119.778 92.6182 126.219 93.1851 134.993L93.1933 134.985Z" fill="#FF9CED" stroke="white" stroke-width="17" stroke-miterlimit="10"/>
<path d="M135.616 131.696C136.207 140.948 144.484 148.005 154.3 147.446C164.351 146.87 172.174 138.566 171.551 128.909C170.927 119.251 162.123 112.235 152.097 113.223C142.07 114.212 135.016 122.443 135.616 131.696Z" fill="#FF9CED" stroke="white" stroke-width="17" stroke-miterlimit="10"/>
<path d="M95.4527 275.665C87.216 275.665 74.0552 272.408 71.5689 263.448C70.6537 260.15 71.3745 256.545 73.5855 253.312C76.6307 248.864 81.9275 245.77 87.3943 245.235C87.9369 245.178 88.4876 245.154 89.014 245.154C92.0188 245.154 94.2703 246.021 96.4408 246.855C98.1983 247.536 100.191 248.297 103.503 249.043C106.751 249.772 109.018 249.974 110.679 250.12C113.432 250.363 117.587 250.736 119.677 255.006C120.414 256.505 121.305 259.616 119.077 263.577C116.097 268.86 108.022 274.669 98.3441 275.544C97.4127 275.625 96.4408 275.673 95.4608 275.673L95.4527 275.665Z" fill="url(#paint6_radial_1_283)"/>
<path d="M89.0222 252.032C92.4319 252.032 94.2866 254.025 102.005 255.751C109.926 257.525 112.776 256.553 113.497 258.02C114.607 260.28 107.577 267.782 97.7286 268.674C96.9916 268.738 96.2303 268.771 95.4609 268.771C87.9045 268.771 79.344 265.676 78.2101 261.601C77.1573 257.809 82.3568 252.64 88.0827 252.081C88.4148 252.049 88.7226 252.032 89.0222 252.032ZM89.0222 238.259C88.269 238.259 87.4997 238.3 86.7303 238.373C79.2873 239.11 72.0792 243.339 67.9163 249.407C64.5309 254.349 63.47 259.98 64.9359 265.271C68.2241 277.14 83.0614 282.536 95.4528 282.536C96.6433 282.536 97.8177 282.487 98.9516 282.382C111.554 281.248 121.329 273.583 125.071 266.94C127.832 262.038 128.116 256.577 125.856 251.959C123.888 247.941 120.341 245.089 115.854 243.922C114.202 243.493 112.72 243.363 111.286 243.234C109.739 243.096 107.812 242.926 105.01 242.294C102.199 241.662 100.531 241.022 98.9191 240.398C96.4166 239.434 93.3066 238.235 89.0222 238.235V238.259Z" fill="white"/>
<path d="M96.3438 278.712C88.0828 278.712 81.1664 275.876 76.8172 273.494L75.9181 273L75.1974 272.263C73.9664 270.999 72.9702 269.468 72.3304 267.823C71.2775 265.133 71.3666 262.767 71.6258 261.252L73.529 250.145L82.5431 256.91C83.9766 257.987 89.1276 261.495 95.2018 261.495C95.7768 261.495 96.3437 261.463 96.9107 261.398C103.22 260.702 106.476 256.318 107.585 254.471L112.825 245.721L118.98 253.847C120.074 255.289 121.896 258.32 121.831 262.362C121.75 267.386 118.867 270.237 117.547 271.283C112.291 275.536 105.892 278.064 99.0407 278.582C98.1498 278.647 97.2428 278.688 96.3438 278.688V278.712Z" fill="url(#paint7_linear_1_283)"/>
<path d="M113.489 258.028C113.748 258.368 114.979 260.053 114.947 262.273C114.907 264.59 113.505 265.733 113.246 265.927C110.954 267.791 106.006 271.177 98.5061 271.744C97.7691 271.801 97.0483 271.825 96.3356 271.825C88.7955 271.825 82.7132 268.876 80.1134 267.458C79.7894 267.126 79.1578 266.413 78.7447 265.336C78.2102 263.958 78.3397 262.84 78.4126 262.427C79.9271 263.569 86.6331 268.39 95.2018 268.39C96.0036 268.39 96.8297 268.35 97.6639 268.252C107.763 267.134 112.525 259.632 113.489 258.02M112.153 233.455L101.681 250.947C101.098 251.919 99.3971 254.212 96.1575 254.568C95.8497 254.601 95.5257 254.617 95.2099 254.617C92.0756 254.617 88.755 252.956 86.6816 251.409L68.6534 237.878L64.8469 260.102C64.2638 263.505 64.6363 267.037 65.924 270.335C66.8959 272.83 68.4023 275.163 70.2812 277.083L71.7148 278.55L73.5127 279.538C78.5665 282.301 86.625 285.598 96.3437 285.598C97.4209 285.598 98.4981 285.558 99.5671 285.477C107.804 284.845 115.498 281.807 121.847 276.686C126.124 273.292 128.626 268.131 128.723 262.492C128.829 256.375 126.107 251.854 124.48 249.699L112.169 233.447L112.153 233.455Z" fill="white"/>
<path d="M138.361 276.492C129.242 276.492 122.989 273.429 120.77 267.871C119.353 264.323 119.814 260.069 122.09 255.897C124.309 251.822 128.829 247.041 134.846 245.867C135.729 245.697 136.579 245.607 137.454 245.607C139.292 245.607 140.766 245.98 142.07 246.304C143.407 246.644 144.67 246.96 146.865 246.96C147.011 246.96 147.156 246.96 147.31 246.96C148.315 246.944 150.372 246.653 153.482 246.215C156.835 245.745 159.086 245.364 160.73 245.081C162.715 244.749 163.808 244.562 164.917 244.562C168.465 244.562 170.409 246.539 171.251 247.714C172.15 248.962 173.462 251.651 172.182 255.605C170.093 262.078 161.613 270.901 151.044 274.45C147.156 275.754 142.654 276.475 138.361 276.475V276.492Z" fill="url(#paint8_radial_1_283)"/>
<path d="M164.926 251.457C165.33 251.457 165.533 251.546 165.663 251.732C167.08 253.709 159.993 264.193 148.857 267.936C145.61 269.03 141.852 269.605 138.361 269.605C133.016 269.605 128.334 268.252 127.16 265.311C125.516 261.204 130.626 253.709 136.166 252.624C136.62 252.535 137.049 252.494 137.454 252.494C139.876 252.494 141.73 253.855 146.865 253.855C147.051 253.855 147.246 253.855 147.448 253.855C148.841 253.831 150.728 253.564 154.454 253.037C161.289 252.073 163.848 251.457 164.934 251.457M164.926 237.684C163.233 237.684 161.783 237.927 159.596 238.3C157.993 238.567 155.79 238.94 152.526 239.401C150.218 239.726 147.821 240.066 147.181 240.082C147.076 240.082 146.97 240.082 146.873 240.082C145.537 240.082 144.945 239.936 143.763 239.636C142.329 239.272 140.159 238.729 137.462 238.729C136.158 238.729 134.838 238.859 133.534 239.11C126.536 240.479 119.839 245.648 116.048 252.607C112.784 258.611 112.193 264.939 114.388 270.432C117.676 278.663 126.423 283.378 138.377 283.378C143.398 283.378 148.679 282.528 153.255 280.988C166.359 276.581 176.175 265.716 178.751 257.728C180.953 250.898 178.516 246.013 176.863 243.704C174.118 239.871 169.769 237.676 164.934 237.676L164.926 237.684Z" fill="white"/>
<path d="M138.393 280.122C134.514 280.122 130.683 279.554 127.014 278.428L125.686 278.023L124.617 277.132C123.013 275.795 121.791 274.021 121.07 272.003C120.041 269.127 120.268 266.494 120.641 264.785L122.576 255.856L130.618 260.175C131.833 260.831 135.138 262.346 139.446 262.346C141.771 262.346 144.095 261.9 146.347 261.034C154.251 257.979 158.446 250.736 159.54 248.589L164.472 238.924L171.113 247.503C172.004 248.654 174.045 251.814 173.81 256.375C173.575 260.904 171.267 263.95 170.222 265.093C166.626 269.143 160.536 274.604 151.878 277.723C147.505 279.303 142.961 280.097 138.393 280.097V280.122Z" fill="url(#paint9_linear_1_283)"/>
<path d="M165.663 251.733C165.906 252.04 167.056 253.596 166.926 256.043C166.796 258.611 165.355 260.231 165.096 260.515C162.723 263.197 157.507 268.406 149.546 271.274C145.439 272.749 141.641 273.243 138.393 273.243C134.158 273.243 130.853 272.408 129.023 271.849C128.658 271.55 127.962 270.869 127.541 269.694C126.998 268.179 127.241 266.778 127.354 266.259C128.65 266.956 133.194 269.249 139.438 269.249C142.265 269.249 145.439 268.779 148.825 267.474C159.507 263.351 164.642 253.75 165.671 251.741M163.265 226.131L153.393 245.47C152.809 246.604 149.627 252.389 143.852 254.617C142.37 255.192 140.92 255.467 139.43 255.467C136.603 255.467 134.449 254.43 133.858 254.115L117.773 245.478L113.894 263.318C113.335 265.903 112.995 269.913 114.566 274.321C115.7 277.488 117.644 280.292 120.187 282.414L122.325 284.197L124.99 285.007C129.314 286.327 133.826 287 138.385 287C143.755 287 149.076 286.06 154.203 284.213C164.205 280.608 171.21 274.345 175.341 269.694C178.491 266.202 180.435 261.487 180.678 256.723C181.018 250.112 178.24 245.462 176.548 243.282L163.265 226.115V226.131Z" fill="white"/>
<path d="M171.348 222.396C161.791 222.396 153.45 216.571 150.08 207.553C145.537 195.4 151.303 181.384 163.201 175.664C166.521 174.068 170.028 173.258 173.624 173.258C182.8 173.258 191.029 178.743 194.584 187.234C199.695 199.443 193.961 214.132 181.804 219.981C178.467 221.586 174.952 222.404 171.364 222.404L171.348 222.396Z" fill="url(#paint10_linear_1_283)"/>
<path d="M173.616 180.145C179.844 180.145 185.635 183.701 188.226 189.891C191.92 198.706 187.732 209.482 178.815 213.776C176.353 214.958 173.818 215.517 171.356 215.517C164.885 215.517 158.965 211.661 156.535 205.155C153.247 196.365 157.596 186.01 166.189 181.879C168.627 180.704 171.162 180.153 173.624 180.153M173.616 166.372C168.983 166.372 164.472 167.409 160.212 169.466C145.14 176.726 137.859 194.517 143.634 209.976C148.015 221.707 158.9 229.291 171.348 229.291C175.981 229.291 180.5 228.245 184.776 226.188C192.227 222.607 198.01 216.344 201.055 208.566C204.149 200.691 204.092 192.176 200.918 184.576C196.293 173.517 185.57 166.372 173.608 166.372H173.616Z" fill="white"/>
<path d="M176.515 186.164L183.351 202.546C184.776 205.965 186.882 208.193 188.024 207.464L188.971 206.864C190.113 206.135 189.854 202.741 188.404 199.338L181.48 183.029C180.103 179.78 178.078 177.714 176.977 178.411L176.062 178.986C174.96 179.683 175.155 182.899 176.515 186.164Z" fill="url(#paint11_radial_1_283)" stroke="white" stroke-width="17" stroke-miterlimit="10"/>
<path d="M187.441 210.008L185.748 209.044C185.149 208.696 184.647 208.315 184.331 208.056C184.331 208.056 184.193 207.942 184.153 207.91C183.772 207.586 183.529 207.351 183.529 207.351L183.351 207.173L183.132 206.929C181.723 205.309 181.188 203.648 180.63 201.89C180.451 201.323 180.233 200.634 179.933 199.8C179.682 199.087 177.949 194.841 176.305 191.366C174.337 187.193 173.138 185.654 172.344 184.633C171.656 183.75 170.797 182.648 170.247 181.012L170.15 180.728L170.077 180.436C169.963 179.975 169.874 179.497 169.817 179.027C169.817 179.027 169.753 178.484 169.728 177.941C169.558 173.987 172.012 172.132 176.459 168.778C178.994 166.866 182.306 164.484 185.894 162.005L189.806 155.823L186.38 127.985L191.604 126.146C193.531 125.465 195.499 125.117 197.451 125.117C197.832 125.117 198.22 125.133 198.617 125.157C204.578 125.579 210.345 129.006 215.309 135.066C223.287 144.813 227.401 159.226 225.781 171.784C224.615 180.85 220.719 187.177 219.254 189.559C208.854 206.46 192.179 210.008 189.32 210.008H187.449H187.441Z" fill="url(#paint12_linear_1_283)"/>
<path d="M197.443 131.995C197.662 131.995 197.888 131.995 198.123 132.02C209.608 132.83 221.27 152.858 218.946 170.9C217.99 178.346 214.896 183.483 213.382 185.946C204.635 200.156 190.535 203.121 189.312 203.121C189.271 203.121 189.247 203.121 189.231 203.113C188.89 202.911 188.591 202.652 188.591 202.652C188.421 202.514 188.315 202.409 188.315 202.409C187.619 201.615 187.441 200.407 186.42 197.515C186.056 196.486 184.209 191.99 182.525 188.433C178.993 180.947 177.268 180.323 176.758 178.816C176.701 178.597 176.661 178.37 176.637 178.152C176.637 178.152 176.604 177.9 176.596 177.649C176.58 177.204 182.5 172.667 190.948 166.874C192.94 163.722 194.94 160.579 196.933 157.427C195.92 149.163 194.9 140.899 193.888 132.643C194.811 132.319 196.034 132.012 197.443 132.012M197.443 118.222C194.714 118.222 191.976 118.7 189.312 119.64L178.872 123.318L180.225 134.312L182.023 148.936L182.67 154.211L180.816 157.135C177.6 159.38 174.636 161.518 172.304 163.277C170.838 164.378 169.647 165.318 168.765 166.072C167.226 167.368 162.553 171.314 162.844 178.224C162.877 178.962 162.949 179.586 162.982 179.893C163.071 180.598 163.201 181.319 163.371 182.032L163.516 182.632L163.711 183.215C164.634 185.962 166.06 187.785 166.902 188.87C167.542 189.697 168.424 190.823 170.068 194.307C171.534 197.418 173.138 201.299 173.438 202.125C173.689 202.838 173.875 203.421 174.053 203.988C174.693 206.006 175.576 208.768 177.924 211.458L178.305 211.896L178.726 212.301C178.799 212.366 178.88 212.447 178.977 212.544L179.042 212.609L179.277 212.811C179.398 212.917 179.528 213.03 179.666 213.152C180.168 213.581 181.083 214.31 182.241 214.991C184.371 216.238 186.809 216.895 189.295 216.895C195.937 216.895 214.159 210.924 225.093 193.164C226.769 190.442 231.224 183.199 232.584 172.659C234.431 158.31 229.733 141.839 220.606 130.691C214.41 123.124 206.967 118.83 199.071 118.279C198.528 118.238 197.969 118.222 197.427 118.222H197.443Z" fill="white"/>
<path d="M51.0542 105.664C50.9166 105.672 50.787 105.664 50.787 105.664C49.9528 105.3 48.7946 104.603 47.8147 103.25C45.0124 99.3772 46.2921 93.6897 46.4217 93.1226C46.6484 91.3078 46.8833 89.501 47.1101 87.6862C47.4178 90.4165 48.1062 93.9085 49.7017 97.4652C50.1228 98.4131 50.5683 99.2638 51.0218 100.042C51.1676 99.9929 51.8155 99.6608 53.079 97.7892C54.1561 96.1932 55.1928 94.2001 56.027 92.5878C57.0718 90.5705 57.6711 89.0554 58.1489 87.8321C58.9345 85.8147 59.6877 83.9108 61.6476 83.3031C64.5309 82.4038 66.4261 85.3529 68.1026 87.9617C69.3417 89.8899 70.759 92.0774 72.0225 91.9802C72.7433 91.7534 75.019 89.0959 77.0357 86.7383C79.0928 84.3402 81.0852 81.7962 82.9642 79.1874L85.1589 76.133L86.7868 79.398C88.2851 82.4038 90.1075 85.1503 92.2051 87.5728C94.6672 90.4165 96.457 92.4744 97.9391 92.6608C100.717 93.0172 105.836 87.2973 109.836 75.9142L112.744 67.6584L114.68 75.9142C116.996 85.7985 121.232 91.4293 123.994 91.17C125.565 91.0161 127.63 88.626 130.254 85.5878C132.87 82.5578 135.121 79.074 136.936 75.2418L139.284 70.2754L141.706 74.8124C147.796 86.236 150.461 86.3332 150.696 86.317C150.882 86.1712 151.352 85.6527 151.765 85.199C152.154 84.7696 152.64 84.2267 153.239 83.5948C155.92 80.7673 158.859 78.2071 161.986 75.9871L164.893 73.9131L166.124 77.2835C169.169 85.5878 174.677 88.8286 177.333 87.8807C178.702 87.3946 179.965 85.4177 181.204 83.5462C182.516 81.5612 183.31 79.7302 183.772 78.4744C185.691 82.655 189.182 85.2314 192.503 84.9559C193.231 84.8911 194.373 84.6642 195.669 83.773C195.977 85.4825 196.293 87.2001 196.601 88.9096C195.847 89.3795 194.268 90.2059 192.138 90.2707C188.647 90.376 186.283 88.3749 185.732 87.8807C185.497 88.221 185.246 88.5693 184.962 88.9339C184.655 89.3309 184.29 89.7603 183.877 90.214C183.877 90.214 181.447 92.8471 178.896 94.1272C175.608 95.78 168.19 91.883 162.148 83.4247C160.334 84.883 158.608 86.4629 156.989 88.1642C156.438 88.7395 156.001 89.2175 155.612 89.6469C154.413 90.9594 153.474 92.0045 151.902 92.4825C148.039 93.6573 144.071 90.5462 139.284 82.5334C137.697 85.1828 135.915 87.6538 133.955 89.898C130.473 93.8923 127.743 97.0196 124.155 97.3517C119.418 97.773 114.866 92.9848 111.764 84.7615C107.342 94.0138 101.916 99.2719 97.1698 98.6318C94.0922 98.2186 91.8487 95.6017 88.7549 91.9964C87.127 90.1006 85.6449 88.0265 84.3328 85.8066C82.9803 87.5566 81.5954 89.258 80.17 90.9027C76.323 95.3506 74.4117 97.5624 72.1602 97.7649C68.548 98.0971 66.2884 94.5566 64.4904 91.7291C63.9559 90.8946 63.1298 89.6064 62.5953 89.0797C62.4576 89.3957 62.3037 89.7927 62.166 90.1492C61.6477 91.4536 60.943 93.2441 59.7282 95.5693C57.5172 99.7904 54.553 105.454 51.0623 105.68L51.0542 105.664Z" fill="url(#paint13_linear_1_283)" stroke="white" stroke-width="17" stroke-miterlimit="10"/>
<path d="M53.322 84.9883C53.3706 85.6851 52.9413 86.3251 52.3744 86.4061C51.8075 86.4872 51.3135 85.993 51.2649 85.2881C51.2163 84.5913 51.6455 83.9513 52.2044 83.8703C52.7632 83.7892 53.2653 84.2835 53.3139 84.9802L53.322 84.9883Z" fill="url(#paint14_linear_1_283)" stroke="white" stroke-width="17" stroke-miterlimit="10"/>
<path d="M72.7837 78.8066C72.8323 79.5277 72.3787 80.1839 71.7875 80.273C71.1963 80.3622 70.6699 79.8518 70.6213 79.1388C70.5727 78.4258 71.0181 77.7615 71.6175 77.6723C72.2168 77.5832 72.7351 78.0855 72.7837 78.8066Z" fill="#FEFFFF" stroke="white" stroke-width="17" stroke-miterlimit="10"/>
<path d="M98.1902 72.2038C98.2388 72.9491 97.761 73.6297 97.1212 73.7269C96.4814 73.8241 95.9307 73.3056 95.8821 72.5602C95.8335 71.8149 96.3114 71.1343 96.9512 71.0371C97.591 70.9399 98.1417 71.4584 98.1902 72.2038Z" fill="url(#paint15_linear_1_283)" stroke="white" stroke-width="17" stroke-miterlimit="10"/>
<path d="M124.569 68.3634C124.617 69.1331 124.107 69.838 123.427 69.9433C122.746 70.0486 122.155 69.5139 122.106 68.7442C122.058 67.9746 122.568 67.2697 123.248 67.1644C123.929 67.059 124.52 67.5938 124.569 68.3634Z" fill="url(#paint16_linear_1_283)" stroke="white" stroke-width="17" stroke-miterlimit="10"/>
<path d="M153.271 66.4596C153.32 67.2536 152.769 67.9909 152.04 68.1043C151.311 68.2177 150.68 67.6587 150.631 66.8728C150.582 66.0869 151.125 65.3497 151.854 65.2362C152.583 65.1228 153.215 65.6737 153.271 66.4677V66.4596Z" fill="url(#paint17_linear_1_283)" stroke="white" stroke-width="17" stroke-miterlimit="10"/>
<path d="M177.358 71.2477C177.406 72.066 176.823 72.8195 176.054 72.9248C175.284 73.0301 174.62 72.463 174.563 71.6447C174.515 70.8264 175.09 70.0811 175.859 69.9676C176.629 69.8542 177.301 70.4294 177.35 71.2477H177.358Z" fill="#FEFFFF" stroke="white" stroke-width="17" stroke-miterlimit="10"/>
<path d="M193.79 72.4711C193.839 73.2894 193.256 74.0429 192.486 74.1482C191.717 74.2535 191.053 73.6864 190.996 72.8681C190.939 72.0498 191.523 71.3045 192.292 71.191C193.061 71.0776 193.734 71.6528 193.782 72.4711H193.79Z" fill="#FEFFFF" stroke="white" stroke-width="17" stroke-miterlimit="10"/>
<path d="M102.88 110.372C103.147 113.669 103.382 117.89 104.313 121.074C104.872 122.97 105.787 124.817 106.548 126.608C108.751 131.833 111.213 135.795 115.376 140.041C119.539 144.286 123.759 146.522 128.861 148.677C134.206 150.938 138.807 152.031 144.921 152.096C151.903 152.169 158.406 150.063 164.513 146.895C165.225 146.522 165.776 146.174 166.44 145.72C169.169 143.816 172.199 141.701 174.466 139.238C179.083 134.232 182.452 128.56 184.46 122.038C185.74 117.874 186.598 113.248 186.064 108.897C186.242 104.157 185.254 99.7338 183.1 95.6343C181.715 91.3646 179.342 87.6702 175.981 84.551C170.012 78.5799 160.212 74.0834 151.643 74.4642C142.743 74.8611 133.51 77.7859 127.306 84.551C121.564 90.8056 116.146 100.058 117.223 108.897C117.328 109.764 117.344 110.493 117.255 111.36C117.668 108.306 118.073 105.259 118.486 102.205C118.405 102.723 118.268 103.234 118.081 103.728C119.239 100.99 120.398 98.2431 121.548 95.5047C121.216 96.25 120.875 96.8496 120.406 97.5139C122.204 95.1887 123.994 92.8716 125.792 90.5463C125.476 90.9433 125.119 91.3079 124.731 91.6401C127.055 89.8415 129.371 88.051 131.696 86.2524C131.064 86.7385 130.489 87.0868 129.768 87.4271L137.988 83.9595C137.519 84.154 137.033 84.2917 136.539 84.3808C139.592 83.9676 142.637 83.5625 145.691 83.1493C144.913 83.2304 144.273 83.2385 143.504 83.1493C146.557 83.5625 149.602 83.9676 152.656 84.3808C152.186 84.2998 151.732 84.1783 151.287 84.0081C154.024 85.1667 156.77 86.3253 159.507 87.4757C158.819 87.176 158.26 86.8519 157.645 86.4306L164.61 91.8183C164.035 91.3322 163.573 90.8542 163.095 90.2709C164.893 92.5961 166.683 94.9132 168.481 97.2385C168.19 96.8415 167.939 96.4202 167.728 95.9746C168.886 98.713 170.044 101.46 171.194 104.198C170.895 103.461 170.7 102.804 170.554 102.019C170.968 105.073 171.372 108.119 171.785 111.174L171.721 110.388C171.899 105.648 170.911 101.225 168.756 97.125C167.372 92.8554 164.999 89.1609 161.638 86.0417C155.669 80.0706 145.869 75.5741 137.3 75.9549C128.399 76.3519 119.167 79.2766 112.963 86.0417C107.075 92.4584 102.151 101.37 102.88 110.388V110.372Z" fill="white"/>
<path d="M41.3922 116.075C41.6595 119.373 41.8944 123.594 42.8258 126.778C43.3846 128.674 44.2998 130.521 45.0611 132.311C47.264 137.537 49.7261 141.499 53.889 145.744C57.9142 149.844 62.2714 152.226 67.3738 154.381C72.7191 156.641 77.3192 157.735 83.434 157.8C90.4153 157.873 96.9188 155.766 103.025 152.598C103.738 152.226 104.289 151.877 104.953 151.424C107.682 149.52 110.711 147.405 112.979 144.942C117.595 139.935 120.965 134.264 122.973 127.742C124.253 123.577 125.111 118.951 124.577 114.601C124.755 109.861 123.767 105.437 121.612 101.338C120.228 97.0682 117.855 93.3738 114.493 90.2546C108.525 84.2835 98.7248 79.787 90.1561 80.1678C81.2554 80.5648 72.0225 83.4895 65.8187 90.2546C60.0766 96.5092 54.6584 105.762 55.7356 114.601C55.8408 115.468 55.857 116.197 55.7679 117.064C56.1809 114.009 56.5859 110.963 56.9989 107.909C56.918 108.427 56.7803 108.937 56.594 109.432C57.7521 106.693 58.9103 103.947 60.0604 101.208C59.7283 101.954 59.3881 102.553 58.9184 103.218L64.3042 96.2499C63.9884 96.6469 63.6321 97.0115 63.2433 97.3437C65.5677 95.5451 67.884 93.7546 70.2084 91.956C69.5767 92.4421 69.0016 92.7905 68.2808 93.1307C71.0183 91.9722 73.7638 90.8136 76.5013 89.6631C76.0316 89.8576 75.5456 89.9953 75.0515 90.0844C78.1049 89.6712 81.1501 89.2661 84.2034 88.853C83.4259 88.934 82.786 88.9421 82.0166 88.853C85.0699 89.2661 88.1152 89.6712 91.1685 90.0844C90.6988 90.0034 90.2452 89.8819 89.7997 89.7117C92.5372 90.8703 95.2827 92.0289 98.0202 93.1793C97.3318 92.8796 96.773 92.5555 96.1575 92.1342L103.123 97.5219C102.548 97.0358 102.086 96.5578 101.608 95.9745L106.994 102.942C106.702 102.545 106.451 102.124 106.241 101.678C107.399 104.417 108.557 107.163 109.707 109.902C109.407 109.164 109.213 108.508 109.067 107.722C109.48 110.777 109.885 113.823 110.298 116.877L110.233 116.091C110.412 111.352 109.424 106.928 107.269 102.829C105.884 98.559 103.511 94.8645 100.15 91.7453C94.1813 85.7743 84.3815 81.2777 75.8128 81.6585C66.912 82.0555 57.6793 84.9803 51.4755 91.7453C45.5876 98.162 40.6633 107.074 41.3922 116.091V116.075Z" fill="white"/>
<path d="M135.688 202.757C135.518 202.514 135.008 201.866 133.518 201.193C131.218 200.156 130.092 200.861 126.82 199.921C126.399 199.8 125.913 199.662 125.281 199.403C124.164 198.941 123.038 198.301 120.187 195.976C119.45 195.376 118.494 194.574 117.393 193.602C117.506 194.858 117.628 196.121 117.741 197.377C117.854 198.633 117.976 199.897 118.089 201.153C119.126 202.546 121.402 205.228 125.135 206.816C126.763 207.513 128.254 207.821 129.436 207.966C129.639 211.086 129.833 214.197 130.035 217.316C129.89 217.664 129.323 218.863 128.011 219.277C127.63 219.39 127.282 219.422 126.982 219.406L111.375 218.952C109.707 218.904 108.241 217.567 107.909 215.874C107.877 215.712 107.86 215.55 107.844 215.388C107.828 215.226 107.836 215.064 107.844 214.902L107.01 203.47C107.002 203.389 106.994 203.308 106.986 203.219C106.986 203.13 106.978 203.04 106.978 202.951C106.978 202.684 107.002 202.433 107.042 202.19C107.18 201.428 108.476 199.654 108.484 199.468C109.083 198.544 109.998 197.361 111.359 196.275C113.643 194.461 116.008 193.829 117.385 193.594C117.207 191.09 117.037 188.587 116.858 186.083C115.676 186.31 114.348 186.667 112.922 187.201C110.76 188.02 109.035 189.04 107.723 189.956C105.682 191.22 104.483 192.532 103.787 193.44C103.276 194.112 103.317 194.201 101.932 196.178C101.138 197.312 100.539 200.164 100.531 200.602C100.523 201.639 100.79 208.169 101.341 217.146C101.551 220.565 102.742 221.626 103.325 222.363C105.139 224.689 107.69 225.491 108.978 225.79C121.353 226.544 130.748 226.86 133.453 226.722C134.287 226.682 135.599 226.536 136.506 225.555C137.268 224.737 137.43 223.668 137.462 223.036C137.081 217.113 136.701 211.191 136.32 205.26C136.344 204.766 136.32 203.713 135.664 202.749L135.688 202.757Z" fill="url(#paint18_linear_1_283)" stroke="white" stroke-width="17" stroke-miterlimit="10"/>
<path d="M129.558 200.448C128.383 200.294 127.217 200.14 125.832 199.613C124.739 199.208 123.977 198.738 123.346 198.358C122.844 198.05 122.196 197.62 120.195 195.976C118.316 194.428 117.458 193.553 117.401 193.602C117.166 193.812 119.847 200.067 125.524 203.34C128.715 205.179 131.939 205.56 132.514 207.796C132.659 208.363 133.324 219.196 133.388 220.613C133.421 221.416 133.413 221.642 133.234 221.813C132.87 222.161 132.028 222.056 131.445 221.65C129.995 220.646 129.914 217.64 129.914 217.64C129.914 217.64 129.914 217.681 129.93 217.753C129.925 217.705 129.919 217.667 129.914 217.64C129.914 217.64 129.566 218.207 129.387 218.442C129.169 218.726 128.78 219.074 128.011 219.285C127.962 219.285 126.61 219.252 126.561 219.252C121.726 219.147 120.77 219.123 119.191 219.09C118.017 219.066 116.316 219.034 114.242 218.993C113.109 218.961 111.975 218.928 110.841 218.904C110.549 218.839 109.383 218.531 108.565 217.397C108.144 216.814 107.982 216.238 107.909 215.89C107.617 211.329 107.334 206.775 107.042 202.214C107.042 200.505 107.277 197.985 108.403 195.287C108.403 195.287 110.412 190.45 114.704 187.704C115.514 187.185 116.34 186.804 116.34 186.804C116.51 186.578 116.688 186.343 116.858 186.116C115.862 186.31 114.793 186.586 113.667 186.966C110.825 187.931 108.597 189.275 106.961 190.491C106.573 190.799 103.698 193.14 102.305 195.676C102.005 196.219 101.616 197.069 101.292 197.872C100.766 199.176 100.636 199.816 100.596 200.027C100.466 200.699 100.442 201.282 100.45 201.679C100.774 207.14 101.09 212.601 101.414 218.061C101.608 220.079 102.572 221.966 104.03 222.744C106.241 223.927 109.691 222.615 110.841 218.904C116.478 219.034 122.204 219.163 128.003 219.293C128.27 219.22 128.715 219.058 129.145 218.677C129.566 218.312 129.792 217.899 129.906 217.648C129.906 222.696 131.744 226.317 133.696 226.722C134.968 226.99 136.361 225.912 137.057 224.762C137.851 223.449 137.559 222.331 137.195 218.718C137.049 217.292 136.863 214.059 136.482 207.594C136.409 206.306 136.353 205.26 136.32 204.58C136.215 203.389 135.745 202.684 135.486 202.368C134.506 201.137 132.951 200.869 131.582 200.634C130.708 200.48 130.862 200.626 129.541 200.448H129.558Z" fill="url(#paint19_linear_1_283)"/>
<path d="M129.914 217.64C129.914 217.64 129.995 220.646 131.445 221.65C132.028 222.056 132.87 222.161 133.234 221.813C133.413 221.642 133.421 221.416 133.388 220.613C133.324 219.196 132.659 208.363 132.514 207.796C131.939 205.56 128.715 205.179 125.524 203.34C119.847 200.067 117.166 193.812 117.401 193.602C117.458 193.553 118.316 194.428 120.195 195.976C122.196 197.62 122.844 198.05 123.346 198.358C123.977 198.738 124.739 199.208 125.832 199.613C127.217 200.14 128.383 200.294 129.558 200.448H129.541C130.862 200.626 130.708 200.48 131.582 200.634C132.951 200.869 134.506 201.137 135.486 202.368C135.745 202.684 136.215 203.389 136.32 204.58C136.353 205.26 136.409 206.306 136.482 207.594C136.863 214.059 137.049 217.292 137.195 218.718C137.559 222.331 137.851 223.449 137.057 224.762C136.361 225.912 134.968 226.99 133.696 226.722C131.744 226.317 129.906 222.696 129.906 217.648C129.792 217.899 129.566 218.312 129.145 218.677C128.715 219.058 128.27 219.22 128.003 219.293C122.204 219.163 116.478 219.034 110.841 218.904M110.841 218.904C111.975 218.928 113.109 218.961 114.242 218.993C116.316 219.034 118.017 219.066 119.191 219.09C120.77 219.123 121.726 219.147 126.561 219.252C126.61 219.252 127.962 219.285 128.011 219.285C128.78 219.074 129.169 218.726 129.387 218.442C129.566 218.207 129.914 217.64 129.914 217.64C129.914 217.64 129.914 217.681 129.93 217.753C129.925 217.705 129.919 217.667 129.914 217.64M110.841 218.904C110.549 218.839 109.383 218.531 108.565 217.397C108.144 216.814 107.982 216.238 107.909 215.89C107.617 211.329 107.334 206.775 107.042 202.214C107.042 200.505 107.277 197.985 108.403 195.287C108.403 195.287 110.412 190.45 114.704 187.704C115.514 187.185 116.34 186.804 116.34 186.804C116.51 186.578 116.688 186.343 116.858 186.116C115.862 186.31 114.793 186.586 113.667 186.966C110.825 187.931 108.597 189.275 106.961 190.491C106.573 190.799 103.698 193.14 102.305 195.676C102.005 196.219 101.616 197.069 101.292 197.872C100.766 199.176 100.636 199.816 100.596 200.027C100.466 200.699 100.442 201.282 100.45 201.679C100.774 207.14 101.09 212.601 101.414 218.061C101.608 220.079 102.572 221.966 104.03 222.744C106.241 223.927 109.691 222.615 110.841 218.904Z" stroke="white" stroke-width="17" stroke-miterlimit="10"/>
<path d="M134.49 193.991C134.538 194.801 134.328 195.554 133.915 196.154C133.332 197.021 132.352 197.58 131.21 197.572C130.068 197.564 129.031 197.013 128.343 196.146C127.865 195.546 127.557 194.809 127.509 193.999C127.484 193.634 127.508 193.278 127.598 192.945C127.946 191.495 129.193 190.434 130.756 190.418C131.145 190.418 131.534 190.483 131.89 190.596C133.299 191.066 134.385 192.403 134.49 193.983V193.991Z" fill="url(#paint20_linear_1_283)" stroke="white" stroke-width="17" stroke-miterlimit="10"/>
<path d="M133.064 193.999C133.105 194.647 132.935 195.238 132.611 195.716C132.149 196.405 131.372 196.851 130.465 196.851C129.558 196.851 128.731 196.405 128.181 195.716C127.8 195.238 127.557 194.647 127.517 194.007C127.5 193.715 127.517 193.432 127.589 193.164C127.865 192.006 128.861 191.163 130.108 191.155C130.424 191.155 130.724 191.204 131.015 191.301C132.141 191.682 133 192.743 133.081 193.999H133.064Z" fill="url(#paint21_linear_1_283)" stroke="white" stroke-width="17" stroke-miterlimit="10"/>
<path d="M131.809 193.999C131.841 194.501 131.712 194.963 131.461 195.336C131.105 195.87 130.497 196.219 129.792 196.211C129.088 196.203 128.448 195.862 128.019 195.336C127.719 194.963 127.533 194.509 127.5 194.007C127.484 193.78 127.5 193.561 127.557 193.351C127.768 192.451 128.545 191.795 129.509 191.795C129.752 191.795 129.987 191.836 130.214 191.909C131.08 192.2 131.752 193.027 131.817 193.999H131.809Z" fill="url(#paint22_linear_1_283)" stroke="white" stroke-width="17" stroke-miterlimit="10"/>
<path d="M124.326 222.436C124.074 222.566 123.815 222.639 123.54 222.663C123.346 222.671 123.103 222.663 122.811 222.631C123.232 222.615 123.751 222.55 124.326 222.444V222.436Z" fill="white"/>
<path d="M121.264 222.331C121.855 222.477 122.382 222.582 122.811 222.631C122.519 222.647 122.276 222.631 122.082 222.615C121.807 222.574 121.531 222.485 121.264 222.331Z" fill="white"/>
<path d="M166.189 196.794L166.877 207.545C166.999 209.425 167.12 211.305 167.242 213.192C158.203 217.203 141.795 223.02 120.859 222.274C102.07 221.602 87.7669 215.874 79.9271 212.05C79.8299 210.519 79.7327 208.979 79.6274 207.448L78.9228 196.446C78.5907 191.252 80.8666 186.983 84.0009 186.958L158.568 186.335C162.374 186.302 165.817 191.009 166.189 196.794Z" fill="#F7FBFF" stroke="#90D5EE" stroke-width="5" stroke-miterlimit="10"/>
<path d="M34.6944 119.705C35.2695 112 41.2951 106.685 48.0577 107.803C54.707 108.905 59.5662 115.848 59.0074 123.318C58.4486 130.788 52.6741 136.152 46.0087 135.277C39.3432 134.402 34.1194 127.41 34.6944 119.705Z" fill="url(#paint23_linear_1_283)"/>
<path d="M28.5878 175.276C30.1266 175.681 58.1409 182.964 60.0685 182.016C60.522 181.798 60.9108 181.498 60.9108 181.498C61.9312 180.647 62.0527 179.335 66.8148 174.579C69.0259 172.375 71.8201 169.799 72.468 169.256C74.266 167.741 75.0596 167.255 75.4646 166.59C75.4646 166.59 75.5132 166.493 75.578 166.355C75.6428 166.21 75.7561 165.845 75.7642 165.837C76.2259 164.192 49.3698 156.504 49.3698 156.504C38.9059 153.506 36.1117 151.513 29.4949 153.077C24.5707 154.235 20.5051 156.674 17.8891 158.497C17.0792 159.639 15.3136 162.458 15.7833 165.821C16.4636 170.739 21.6551 174.903 28.5878 175.276Z" fill="url(#paint24_linear_1_283)"/>
<path d="M19.3224 154.689C20.0514 153.295 33.3013 128.026 35.2775 127.288C35.7391 127.118 36.217 127.037 36.217 127.037C37.529 126.891 38.5657 127.71 45.2311 127.556C48.3249 127.483 52.0747 127.24 52.9089 127.151C55.2252 126.899 56.108 126.656 56.8612 126.827C56.8612 126.827 56.9664 126.859 57.1122 126.908C57.258 126.964 57.6063 127.126 57.6225 127.134C59.137 127.945 46.9481 152.647 46.9481 152.647C42.2021 162.28 41.8133 165.675 36.2655 169.377C32.1431 172.132 27.6483 173.388 24.5626 174.012C23.1857 173.809 19.938 173.129 17.7756 170.471C14.6089 166.582 14.9895 159.955 19.3306 154.689H19.3224Z" fill="url(#paint25_linear_1_283)"/>
<path d="M40.469 127.029L53.0466 128.925C55.5654 129.306 57.4606 130.424 57.2824 131.42L57.1285 132.247C56.9503 133.243 54.7474 133.762 52.2286 133.397L39.6348 131.566C37.0188 131.185 35.0184 130.035 35.2128 129.014L35.3666 128.163C35.5529 127.142 37.8611 126.632 40.469 127.021V127.029Z" fill="url(#paint26_radial_1_283)"/>
<path d="M217.868 152.226C220.185 160.012 224.372 178.16 217.042 197.588C211.891 211.232 203.031 218.807 185.294 233.941C156.292 258.709 138.701 258.854 134.117 258.725C131.728 258.66 130.068 258.393 127.897 258.149C117.409 256.983 83.7578 253.264 62.7896 224.284C49.159 205.439 45.1015 182.033 46.7051 165.699C47.0371 162.321 47.3449 161.502 48.252 154.146C49.7017 142.333 50.22 132.214 50.4062 124.874C50.5682 118.482 50.5035 113.872 50.4954 113.053C50.4792 110.21 55.4439 32.5372 108.362 21.3161C149.4 12.6147 188.008 50.5071 195.216 74.44C198.423 85.0858 199.719 91.8914 199.719 91.8914C203.574 112.227 201.209 124.671 208.182 130.748C209.397 131.809 214.386 140.502 217.868 152.218V152.226Z" fill="url(#paint27_radial_1_283)"/>
<g filter="url(#filter0_d_1_283)">
<path d="M205.809 188.563C210.741 180.979 215.682 173.388 220.614 165.804C221.788 171.119 223.497 182.438 218.986 195.384C216.289 203.122 212.304 208.777 209.284 212.366C207.51 211.661 205.728 210.948 203.954 210.243C202.408 211.977 200.853 213.711 199.306 215.445C196.593 218.288 193.879 221.132 191.174 223.976C188.251 221.999 185.343 220.03 182.452 218.078C181.042 219.674 179.01 221.91 176.515 224.478C171.47 229.671 167.015 234.095 160.917 238.308C155.531 242.027 152.801 243.858 149.538 243.485C144.192 242.877 141.544 237.943 137.665 238.47C135.486 238.762 135.364 240.455 132.862 242.667C130.238 244.992 126.585 246.507 124.066 247.042C123.467 247.171 122.941 247.244 122.503 247.26C122.058 247.188 121.515 247.042 120.9 246.831C118.332 245.964 114.558 243.995 111.748 241.395C109.091 238.948 108.767 237.287 106.694 236.769C103.041 235.861 101.219 240.309 96.5056 240.301C93.6871 240.301 91.1117 238.3 86.1228 234.33C80.6236 229.963 76.5579 225.645 72.0305 220.703C69.8357 218.296 68.0458 216.238 66.8148 214.78C65.7214 216.182 64.6362 217.583 63.551 218.977C61.8097 217.972 56.4644 214.57 52.8117 207.051C49.0457 199.306 49.4506 192.063 49.6369 189.924C49.5964 186.578 50.4792 185.217 50.7302 184.86C52.4472 182.478 56.3509 183.458 59.7525 188.563C62.3037 185.079 65.8511 180.323 70.2245 174.749C79.3682 163.09 80.8989 162.167 82.8588 162.191C87.3052 162.248 89.3299 167.133 99.5427 170.738C101.017 171.257 102.24 171.605 103.025 171.808C104.467 170.576 106.241 169.215 108.354 167.895C109.626 167.109 110.606 166.436 111.966 165.958C113.068 165.578 114.388 165.245 115.984 165.035C116.372 164.986 116.777 164.938 117.198 164.897C117.628 164.905 118.033 164.921 118.43 164.946C120.057 165.043 121.434 165.278 122.609 165.586C124.066 165.966 125.168 166.582 126.593 167.303C128.982 168.51 131.056 169.799 132.757 170.99C133.566 170.73 134.846 170.301 136.385 169.669C147.327 165.164 148.962 159.76 154.178 159.299C156.511 159.088 158.495 159.963 171.672 172.254C178.232 178.379 183.723 183.734 187.757 187.736C190.64 183.442 195.572 181.635 199.832 183.134C203.428 184.406 205.299 187.598 205.817 188.546L205.809 188.563Z" fill="url(#paint28_linear_1_283)"/>
</g>
<path d="M118.551 160.854C118.17 160.838 117.782 160.838 117.369 160.83C117.741 160.797 118.13 160.773 118.535 160.749C118.535 160.781 118.551 160.822 118.551 160.854Z" fill="white"/>
<path d="M117.369 160.83C116.964 160.862 116.567 160.903 116.194 160.943C116.194 160.911 116.194 160.87 116.194 160.838C116.599 160.83 116.988 160.822 117.36 160.822L117.369 160.83Z" fill="white"/>
<g filter="url(#filter1_d_1_283)">
<path d="M181.852 97.8056C181.358 102.416 177.771 131.201 153.255 149.034C138.061 160.085 123.022 160.725 116.915 160.903C110.671 161.081 94.7401 161.292 79.4168 149.99C76.3635 147.737 58.975 134.434 55.2009 109.626C54.8122 107.05 53.079 94.5811 57.5577 79.4954C63.2513 60.3184 79.4492 35.5024 106.897 28.3242C133.283 21.4214 160.244 33.1285 173.535 55.4572C184.225 73.4029 182.46 92.191 181.852 97.8056Z" fill="white" stroke="#D0D2D3" stroke-width="0.25" stroke-miterlimit="10"/>
</g>
<path d="M180.549 88.367C178.362 88.7234 175.568 85.9607 170.06 80.4271C168.4 78.7501 167.064 77.3079 166.157 76.2952C164.496 78.1991 162.002 80.6378 158.479 82.7848C156.227 84.1621 154.089 85.0938 152.283 85.7339C150.947 84.9885 149.473 84.0082 147.983 82.7281C144.095 79.382 142.022 75.5903 140.92 73.0626C140.102 75.3878 138.369 79.3496 134.717 83.1494C131.598 86.3901 128.335 88.2292 126.196 89.2176C124.431 88.6586 121.054 87.4757 118.34 84.3484C114.08 79.4549 113.441 73.1193 113.311 71.3936C112.93 73.8241 111.837 79.0984 108.435 84.1621C105.204 88.9746 101.551 91.1216 99.7939 91.9885C95.137 87.6459 90.5286 83.36 85.9689 79.1146C83.3772 84.9885 79.2872 92.3531 74.3226 92.4017C69.7791 92.4503 67.7382 85.426 63.9317 86.0174C61.5425 86.3901 58.5702 89.6714 55.6545 101.695C54.7232 102.116 53.9942 102.091 53.4516 101.938C50.6574 101.168 48.5193 95.9422 48.2115 88.9179C53.3787 52.0869 76.6794 22.4989 107.18 14.2674C117.919 11.367 141.244 7.95607 163.322 20.9595C166.238 22.6771 178.597 30.2281 187.749 45.6378C197.192 61.5417 197.856 76.7732 197.735 83.4653C196.73 83.8461 195.726 84.235 194.714 84.6158C193.928 84.8183 192.64 85.0209 191.182 84.632C187.425 83.6355 186.104 79.6656 185.991 79.301C185.748 80.5001 184.193 87.7674 180.532 88.367H180.549Z" fill="url(#paint29_radial_1_283)"/>
<path d="M95.137 132.79C95.7039 141.564 89.2733 149.074 80.9476 149.552C72.8 150.014 65.8754 143.541 65.3328 135.107C64.7901 126.665 70.8158 119.186 78.9391 118.393C87.2405 117.582 94.5619 124.023 95.1289 132.798L95.137 132.79Z" fill="#FF9CED"/>
<path d="M137.559 129.5C138.151 138.752 146.428 145.809 156.244 145.25C166.294 144.675 174.118 136.371 173.494 126.713C172.871 117.056 164.067 110.039 154.041 111.028C144.249 111.984 136.96 120.248 137.559 129.5Z" fill="#FF9CED"/>
<path d="M106.856 118.814C107.439 123.302 111.586 126.446 116 125.919C120.171 125.425 123.475 121.779 123.475 117.501C123.192 111.846 117.968 108.168 113.4 109.14C109.504 109.966 106.378 114.115 106.856 118.814Z" fill="#FF9CED"/>
<path d="M105.884 119.081C106.435 122.921 109.504 126.146 113.343 126.826C117.223 127.515 121.167 125.676 123.176 122.281C125.184 118.887 124.674 114.447 122.066 111.376C119.79 108.686 115.927 107.26 112.501 108.33C108.103 109.699 105.447 114.341 105.844 118.814C105.957 120.102 107.982 120.11 107.868 118.814C107.577 115.581 109.035 112.292 111.975 110.728C114.51 109.375 117.636 110.031 119.733 111.895C122.058 113.953 123.103 117.234 121.961 120.183C120.843 123.059 117.944 125.036 114.85 124.971C111.221 124.89 108.346 122.079 107.836 118.554C107.755 118.012 107.075 117.72 106.589 117.85C106.006 118.003 105.803 118.554 105.884 119.097V119.081Z" fill="#231F20"/>
<path d="M107.86 118.53C109.245 117.801 111.902 116.634 115.449 116.48C118.583 116.351 121.062 117.08 122.479 117.615C122.519 116.788 122.447 115.476 121.766 114.107C120.422 111.425 117.02 109.205 113.44 110.023C109.796 110.858 107.245 114.56 107.86 118.522V118.53Z" fill="#C82984"/>
<path d="M115.433 255.832C116.542 258.093 109.504 265.595 99.6642 266.486C91.6625 267.207 81.393 263.91 80.1458 259.413C79.0929 255.622 84.2924 250.453 90.0183 249.894C94.084 249.489 95.55 251.692 103.941 253.572C111.861 255.346 114.712 254.374 115.433 255.84V255.832Z" fill="url(#paint30_radial_1_283)"/>
<path d="M115.198 263.732C112.906 265.595 107.958 268.982 100.458 269.549C91.9216 270.197 84.916 266.818 82.0652 265.263C81.7412 264.931 81.1095 264.218 80.6964 263.14C80.1619 261.763 80.2997 260.645 80.3644 260.232C82.0247 261.479 89.8887 267.134 99.6156 266.065C109.715 264.947 114.477 257.445 115.441 255.832C115.7 256.173 116.931 257.858 116.899 260.078C116.858 262.395 115.457 263.537 115.198 263.732Z" fill="url(#paint31_linear_1_283)"/>
<path d="M167.606 249.537C169.024 251.514 161.937 261.998 150.801 265.741C142.581 268.504 131.048 267.969 129.104 263.116C127.46 259.008 132.57 251.514 138.11 250.428C141.39 249.788 142.896 251.773 149.384 251.652C150.777 251.627 152.664 251.36 156.389 250.833C165.792 249.505 167.112 248.832 167.606 249.529V249.537Z" fill="url(#paint32_radial_1_283)"/>
<path d="M167.039 258.319C164.666 261.001 159.451 266.211 151.489 269.079C142.038 272.482 134.206 270.642 130.967 269.654C130.602 269.354 129.906 268.674 129.484 267.499C128.942 265.984 129.185 264.582 129.298 264.064C131.177 265.076 139.916 269.468 150.76 265.279C161.443 261.155 166.578 251.554 167.606 249.545C167.849 249.853 168.999 251.409 168.87 253.855C168.74 256.424 167.299 258.044 167.039 258.328V258.319Z" fill="url(#paint33_linear_1_283)"/>
<path d="M168.125 179.675C159.532 183.807 155.183 194.161 158.471 202.951C161.824 211.928 171.834 215.866 180.751 211.572C189.676 207.278 193.855 196.51 190.162 187.688C186.55 179.051 176.71 175.535 168.117 179.667L168.125 179.675Z" fill="url(#paint34_linear_1_283)"/>
<path d="M178.459 183.969L185.294 200.351C186.72 203.77 188.826 205.998 189.968 205.268L190.915 204.669C192.057 203.94 191.798 200.545 190.348 197.142L183.424 180.833C182.047 177.584 180.022 175.518 178.921 176.215L178.005 176.79C176.904 177.487 177.098 180.704 178.459 183.969Z" fill="url(#paint35_radial_1_283)"/>
<path d="M192.891 164.67C184.452 170.471 178.524 175 178.54 175.446C178.548 175.697 178.581 175.948 178.581 175.948C178.605 176.167 178.645 176.385 178.702 176.612C179.212 178.119 180.937 178.743 184.468 186.229C186.145 189.786 188 194.282 188.364 195.311C189.385 198.204 189.563 199.411 190.259 200.205C190.259 200.205 190.365 200.31 190.535 200.448C190.535 200.448 190.834 200.707 191.174 200.91C191.515 201.112 206.279 198.439 215.325 183.742C216.84 181.287 219.926 176.15 220.889 168.697C223.214 150.654 211.551 130.626 200.067 129.816C198.366 129.694 196.9 130.051 195.831 130.424C196.844 138.687 197.864 146.951 198.877 155.207C196.884 158.359 194.884 161.502 192.891 164.654V164.67Z" fill="url(#paint36_linear_1_283)"/>
<path d="M53.0061 103.469C52.8685 103.477 52.7388 103.469 52.7388 103.469C51.9046 103.104 50.7465 102.408 49.7666 101.055C46.9643 97.1819 48.244 91.4944 48.3736 90.9272C48.6003 89.1124 48.8352 87.3057 49.062 85.4909C49.3697 88.2212 50.0581 91.7131 51.6536 95.2698C52.0747 96.2178 52.5202 97.0685 52.9737 97.8462C53.1195 97.7976 53.7674 97.4655 55.0309 95.5939C56.108 93.9979 57.1447 92.0048 57.9789 90.3925C59.0237 88.3752 59.623 86.8601 60.1008 85.6367C60.8864 83.6194 61.6396 81.7154 63.5995 81.1078C66.4828 80.2085 68.3779 83.1576 70.0544 85.7664C71.2935 87.6946 72.7109 89.8821 73.9744 89.7849C74.6952 89.558 76.9709 86.9006 78.9876 84.543C81.0447 82.1448 83.0371 79.6009 84.9161 76.9921L87.1108 73.9377L88.7387 77.2027C90.2371 80.2085 92.0593 82.955 94.1569 85.3775C96.619 88.2212 98.4089 90.2791 99.891 90.4655C102.669 90.8219 107.787 85.102 111.788 73.7189L114.696 65.4631L116.632 73.7189C118.948 83.6032 123.184 89.234 125.945 88.9747C127.517 88.8208 129.582 86.4307 132.206 83.3925C134.822 80.3624 137.073 76.8786 138.887 73.0465L141.236 68.08L143.658 72.6171C149.748 84.0407 152.413 84.1379 152.648 84.1217C152.834 83.9759 153.304 83.4573 153.717 83.0036C154.105 82.5742 154.591 82.0314 155.191 81.3995C157.871 78.5719 160.811 76.0117 163.938 73.7918L166.845 71.7178L168.076 75.0881C171.121 83.3925 176.629 86.6333 179.285 85.6854C180.654 85.1992 181.917 83.2224 183.156 81.3509C184.468 79.3659 185.262 77.5349 185.724 76.2791C187.643 80.4597 191.134 83.036 194.454 82.7606C195.183 82.6958 196.325 82.4689 197.621 81.5777C197.929 83.2872 198.245 85.0048 198.552 86.7143C197.799 87.1842 196.22 88.0106 194.09 88.0754C190.599 88.1807 188.234 86.1796 187.684 85.6854C187.449 86.0256 187.198 86.374 186.914 86.7386C186.607 87.1356 186.242 87.565 185.829 88.0187C185.829 88.0187 183.399 90.6518 180.848 91.9319C177.56 93.5847 170.141 89.6877 164.099 81.2293C162.285 82.6877 160.56 84.2675 158.94 85.9689C158.39 86.5442 157.952 87.0222 157.564 87.4516C156.365 88.7641 155.426 89.8092 153.854 90.2872C149.991 91.462 146.023 88.3509 141.236 80.3381C139.649 82.9874 137.867 85.4585 135.907 87.7027C132.425 91.6969 129.695 94.8242 126.107 95.1564C121.369 95.5777 116.818 90.7895 113.716 82.5661C109.294 91.8185 103.868 97.0766 99.1216 96.4365C96.044 96.0233 93.8005 93.4064 90.7067 89.8011C89.0788 87.9053 87.5968 85.8312 86.2847 83.6113C84.9322 85.3613 83.5473 87.0627 82.1219 88.7073C78.2749 93.1553 76.3635 95.3671 74.112 95.5696C70.4998 95.9018 68.2403 92.3613 66.4423 89.5337C65.9078 88.6992 65.0817 87.4111 64.5472 86.8844C64.4095 87.2004 64.2556 87.5974 64.1179 87.9539C63.5996 89.2583 62.8949 91.0488 61.6801 93.374C59.4691 97.5951 56.5049 103.258 53.0143 103.485L53.0061 103.469Z" fill="url(#paint37_linear_1_283)"/>
<path d="M55.2657 82.7928C55.3142 83.4895 54.8851 84.1296 54.3181 84.2106C53.7512 84.2916 53.2572 83.7974 53.2086 83.0925C53.16 82.3877 53.5892 81.7557 54.148 81.6747C54.7068 81.5937 55.2091 82.0879 55.2576 82.7847L55.2657 82.7928Z" fill="url(#paint38_linear_1_283)"/>
<path d="M74.7275 76.6194C74.7761 77.3404 74.3226 77.9967 73.7314 78.0858C73.1401 78.1749 72.6137 77.6645 72.5651 76.9515C72.5166 76.2386 72.962 75.5742 73.5613 75.4851C74.1606 75.396 74.6789 75.8983 74.7275 76.6194Z" fill="#FEFFFF"/>
<path d="M100.134 70.0082C100.183 70.7536 99.7048 71.4341 99.065 71.5314C98.4251 71.6286 97.8744 71.1101 97.8258 70.3647C97.7772 69.6274 98.255 68.9388 98.8948 68.8415C99.5346 68.7443 100.085 69.2628 100.134 70.0082Z" fill="url(#paint39_linear_1_283)"/>
<path d="M126.512 66.1679C126.561 66.9375 126.051 67.6424 125.37 67.7477C124.69 67.8531 124.099 67.3183 124.05 66.5487C124.002 65.779 124.512 65.0741 125.192 64.9688C125.872 64.8635 126.464 65.3982 126.512 66.1679Z" fill="url(#paint40_linear_1_283)"/>
<path d="M155.215 64.2638C155.263 65.0578 154.713 65.7951 153.984 65.9085C153.255 66.0219 152.623 65.4629 152.575 64.677C152.526 63.8911 153.069 63.1539 153.798 63.0404C154.526 62.927 155.158 63.4779 155.215 64.2719V64.2638Z" fill="url(#paint41_linear_1_283)"/>
<path d="M179.301 69.0522C179.35 69.8705 178.767 70.6239 177.997 70.7293C177.228 70.8346 176.564 70.2675 176.507 69.4492C176.459 68.6309 177.034 67.8855 177.803 67.7721C178.572 67.6587 179.245 68.2339 179.293 69.0522H179.301Z" fill="#FEFFFF"/>
<path d="M195.734 70.2756C195.783 71.0939 195.199 71.8473 194.43 71.9526C193.661 72.058 192.997 71.4908 192.94 70.6725C192.883 69.8543 193.466 69.1089 194.236 68.9955C195.005 68.882 195.677 69.4573 195.726 70.2756H195.734Z" fill="#FEFFFF"/>
<path d="M137.729 108.176C137.899 112.065 140.459 115.573 144.249 116.667C147.958 117.744 151.878 115.978 153.887 112.754C155.102 110.801 155.426 108.533 155.061 106.296C154.932 105.486 153.927 105.033 153.19 105.235C152.332 105.47 152 106.288 152.129 107.107C152.656 110.315 150.218 113.653 147.067 113.945C143.836 114.244 140.912 111.522 140.766 108.184C140.685 106.24 137.648 106.223 137.729 108.184V108.176Z" fill="black"/>
<path d="M76.2419 113.88C76.412 117.769 78.9713 121.277 82.7616 122.37C86.471 123.448 90.3909 121.682 92.3994 118.457C93.6143 116.505 93.9382 114.236 93.5737 112C93.4442 111.19 92.4399 110.736 91.7029 110.939C90.8444 111.174 90.5123 111.992 90.6419 112.81C91.1684 116.019 88.7306 119.356 85.5801 119.648C82.3486 119.948 79.4248 117.226 79.2791 113.888C79.1981 111.943 76.161 111.927 76.2419 113.888V113.88Z" fill="black"/>
<path d="M137.64 200.561C137.47 200.318 136.96 199.67 135.47 198.998C133.17 197.961 132.044 198.665 128.772 197.726C128.351 197.604 127.865 197.466 127.233 197.207C126.115 196.745 124.99 196.105 122.139 193.78C121.402 193.181 120.446 192.378 119.345 191.406C119.458 192.662 119.58 193.926 119.693 195.182C119.806 196.437 119.928 197.701 120.041 198.957C121.078 200.351 123.354 203.032 127.087 204.62C128.715 205.317 130.205 205.625 131.388 205.771L131.987 215.12C131.841 215.469 131.274 216.668 129.962 217.081C129.582 217.194 129.233 217.227 128.934 217.211L113.327 216.757C111.659 216.708 110.193 215.372 109.861 213.678C109.828 213.516 109.812 213.354 109.796 213.192C109.78 213.03 109.788 212.868 109.796 212.706L108.962 201.274C108.954 201.193 108.946 201.112 108.937 201.023C108.937 200.934 108.929 200.845 108.929 200.756C108.929 200.488 108.954 200.237 108.994 199.994C109.132 199.233 110.428 197.458 110.436 197.272C111.035 196.348 111.95 195.165 113.311 194.08C115.595 192.265 117.96 191.633 119.337 191.398C119.158 188.895 118.988 186.391 118.81 183.888C117.628 184.115 116.299 184.471 114.874 185.006C112.712 185.824 110.987 186.845 109.674 187.76C107.634 189.024 106.435 190.337 105.738 191.244C105.228 191.917 105.269 192.006 103.884 193.983C103.09 195.117 102.491 197.969 102.483 198.406C102.475 199.443 102.742 205.973 103.292 214.95C103.503 218.369 104.694 219.431 105.277 220.168C107.091 222.493 109.642 223.295 110.93 223.595C123.305 224.348 132.7 224.664 135.405 224.527C136.239 224.486 137.551 224.34 138.458 223.36C139.22 222.542 139.381 221.472 139.414 220.84C139.033 214.918 138.653 208.995 138.272 203.065C138.296 202.571 138.272 201.517 137.616 200.553L137.64 200.561Z" fill="url(#paint42_linear_1_283)"/>
<path d="M131.501 198.252C130.327 198.098 129.161 197.944 127.776 197.418C126.682 197.013 125.921 196.543 125.289 196.162C124.787 195.854 124.139 195.425 122.139 193.78C120.26 192.233 119.401 191.358 119.345 191.406C119.11 191.617 121.791 197.872 127.468 201.145C130.659 202.984 133.882 203.365 134.457 205.601C134.603 206.168 135.267 217 135.332 218.418C135.365 219.22 135.356 219.447 135.178 219.617C134.814 219.965 133.971 219.86 133.388 219.455C131.939 218.45 131.858 215.444 131.858 215.444C131.858 215.444 131.858 215.485 131.874 215.558C131.868 215.509 131.863 215.471 131.858 215.444C131.858 215.444 131.509 216.012 131.331 216.247C131.113 216.53 130.724 216.878 129.954 217.089C129.906 217.089 128.553 217.057 128.505 217.057C123.67 216.951 122.714 216.927 121.135 216.895C119.96 216.87 118.259 216.838 116.186 216.797C115.052 216.765 113.918 216.733 112.785 216.708C112.493 216.644 111.327 216.336 110.509 215.201C110.088 214.618 109.926 214.043 109.853 213.694C109.561 209.133 109.278 204.58 108.986 200.019C108.986 198.309 109.221 195.789 110.347 193.091C110.347 193.091 112.355 188.255 116.648 185.508C117.458 184.99 118.284 184.609 118.284 184.609C118.454 184.382 118.632 184.147 118.802 183.92C117.806 184.115 116.737 184.39 115.611 184.771C112.768 185.735 110.541 187.08 108.905 188.295C108.516 188.603 105.641 190.944 104.248 193.48C103.949 194.023 103.56 194.874 103.236 195.676C102.71 196.98 102.58 197.62 102.539 197.831C102.41 198.504 102.386 199.087 102.394 199.484C102.718 204.944 103.033 210.405 103.357 215.866C103.552 217.883 104.516 219.771 105.973 220.549C108.184 221.731 111.634 220.419 112.785 216.708C118.421 216.838 124.147 216.968 129.946 217.097C130.214 217.024 130.659 216.862 131.088 216.482C131.509 216.117 131.736 215.704 131.85 215.453C131.85 220.5 133.688 224.122 135.64 224.527C136.911 224.794 138.304 223.716 139.001 222.566C139.795 221.254 139.503 220.135 139.139 216.522C138.993 215.096 138.807 211.863 138.426 205.398C138.353 204.11 138.296 203.065 138.264 202.384C138.159 201.193 137.689 200.488 137.43 200.172C136.45 198.941 134.895 198.674 133.526 198.439C132.651 198.285 132.805 198.431 131.485 198.252H131.501Z" fill="url(#paint43_linear_1_283)"/>
<path d="M136.434 191.803C136.482 192.613 136.271 193.367 135.858 193.966C135.275 194.833 134.295 195.392 133.153 195.384C132.02 195.384 130.975 194.825 130.286 193.958C129.809 193.359 129.501 192.621 129.452 191.811C129.428 191.447 129.452 191.09 129.541 190.758C129.89 189.308 131.137 188.246 132.7 188.23C133.089 188.23 133.477 188.295 133.834 188.408C135.243 188.878 136.328 190.215 136.434 191.795V191.803Z" fill="url(#paint44_linear_1_283)"/>
<path d="M135.008 191.803C135.049 192.451 134.878 193.043 134.555 193.521C134.093 194.209 133.315 194.655 132.408 194.655C131.501 194.655 130.675 194.209 130.124 193.521C129.744 193.043 129.501 192.451 129.46 191.811C129.444 191.52 129.46 191.236 129.533 190.969C129.809 189.81 130.805 188.968 132.052 188.959C132.368 188.959 132.667 189.008 132.959 189.105C134.085 189.486 134.943 190.547 135.024 191.803H135.008Z" fill="url(#paint45_linear_1_283)"/>
<path d="M133.761 191.803C133.793 192.306 133.664 192.767 133.413 193.14C133.056 193.675 132.449 194.023 131.744 194.015C131.04 194.007 130.4 193.667 129.971 193.14C129.671 192.767 129.485 192.314 129.452 191.811C129.436 191.585 129.452 191.366 129.509 191.155C129.719 190.256 130.497 189.6 131.461 189.6C131.704 189.6 131.939 189.64 132.165 189.713C133.032 190.005 133.704 190.831 133.769 191.803H133.761Z" fill="url(#paint46_linear_1_283)"/>
<defs>
<filter id="filter0_d_1_283" x="29.5244" y="149.274" width="212.408" height="127.987" filterUnits="userSpaceOnUse" color-interpolation-filters="sRGB">
<feFlood flood-opacity="0" result="BackgroundImageFix"/>
<feColorMatrix in="SourceAlpha" type="matrix" values="0 0 0 0 0 0 0 0 0 0 0 0 0 0 0 0 0 0 127 0" result="hardAlpha"/>
<feOffset dy="10"/>
<feGaussianBlur stdDeviation="10"/>
<feColorMatrix type="matrix" values="0 0 0 0 0 0 0 0 0 0 0 0 0 0 0 0 0 0 0.25 0"/>
<feBlend mode="normal" in2="BackgroundImageFix" result="effect1_dropShadow_1_283"/>
<feBlend mode="normal" in="SourceGraphic" in2="effect1_dropShadow_1_283" result="shape"/>
</filter>
<filter id="filter1_d_1_283" x="51.4213" y="23.2246" width="148.049" height="154.849" filterUnits="userSpaceOnUse" color-interpolation-filters="sRGB">
<feFlood flood-opacity="0" result="BackgroundImageFix"/>
<feColorMatrix in="SourceAlpha" type="matrix" values="0 0 0 0 0 0 0 0 0 0 0 0 0 0 0 0 0 0 127 0" result="hardAlpha"/>
<feOffset dx="7" dy="7"/>
<feGaussianBlur stdDeviation="5"/>
<feColorMatrix type="matrix" values="0 0 0 0 0 0 0 0 0 0 0 0 0 0 0 0 0 0 0.15 0"/>
<feBlend mode="normal" in2="BackgroundImageFix" result="effect1_dropShadow_1_283"/>
<feBlend mode="normal" in="SourceGraphic" in2="effect1_dropShadow_1_283" result="shape"/>
</filter>
<linearGradient id="paint0_linear_1_283" x1="55.588" y1="106.743" x2="34.2415" y2="140.629" gradientUnits="userSpaceOnUse">
<stop stop-color="#90D5EE"/>
<stop offset="0.44" stop-color="#8BD4EF"/>
<stop offset="0.89" stop-color="#26A9E0"/>
</linearGradient>
<linearGradient id="paint1_linear_1_283" x1="63.4769" y1="149.987" x2="28.164" y2="191.876" gradientUnits="userSpaceOnUse">
<stop stop-color="#90D5EE"/>
<stop offset="0.44" stop-color="#8BD4EF"/>
<stop offset="0.89" stop-color="#26A9E0"/>
</linearGradient>
<linearGradient id="paint2_linear_1_283" x1="61.759" y1="148.978" x2="7.54078" y2="146.791" gradientUnits="userSpaceOnUse">
<stop stop-color="#90D5EE"/>
<stop offset="0.44" stop-color="#8BD4EF"/>
<stop offset="0.89" stop-color="#26A9E0"/>
</linearGradient>
<radialGradient id="paint3_radial_1_283" cx="0" cy="0" r="1" gradientTransform="matrix(-10.6269 -0.852018 0.607368 -2.82943 44.4516 132.897)" gradientUnits="userSpaceOnUse">
<stop stop-color="white"/>
<stop offset="0.47" stop-color="#FEFEFE"/>
<stop offset="0.76" stop-color="#FCFCFC"/>
<stop offset="1" stop-color="#F1F1F2"/>
</radialGradient>
<radialGradient id="paint4_radial_1_283" cx="0" cy="0" r="1" gradientTransform="matrix(112.73 -7.04751 10.0986 157.009 129.699 141.268)" gradientUnits="userSpaceOnUse">
<stop stop-color="#90D5EE"/>
<stop offset="0.5" stop-color="#90D5EE"/>
<stop offset="0.83" stop-color="#26A9E0"/>
<stop offset="1"/>
</radialGradient>
<radialGradient id="paint5_radial_1_283" cx="0" cy="0" r="1" gradientTransform="matrix(66.1381 -4.13472 4.63159 72.0094 119.053 56.9957)" gradientUnits="userSpaceOnUse">
<stop stop-color="#88FFBD"/>
<stop offset="0.32" stop-color="#83F5B5"/>
<stop offset="1" stop-color="#5AE194"/>
</radialGradient>
<radialGradient id="paint6_radial_1_283" cx="0" cy="0" r="1" gradientTransform="matrix(20.2388 -5.06667 3.85044 14.9564 97.1248 259.481)" gradientUnits="userSpaceOnUse">
<stop stop-color="#88FFBD"/>
<stop offset="0.64" stop-color="#83F5B5"/>
<stop offset="1" stop-color="#5AE194"/>
</radialGradient>
<linearGradient id="paint7_linear_1_283" x1="72.3315" y1="268.117" x2="120.665" y2="255.847" gradientUnits="userSpaceOnUse">
<stop stop-color="#F1F1F2"/>
<stop offset="0.4" stop-color="white"/>
<stop offset="0.75" stop-color="#FDFDFD"/>
<stop offset="1" stop-color="#F1F1F2"/>
</linearGradient>
<radialGradient id="paint8_radial_1_283" cx="0" cy="0" r="1" gradientTransform="matrix(21.8477 -4.38512 3.33612 16.1555 146.685 259.578)" gradientUnits="userSpaceOnUse">
<stop stop-color="#88FFBD"/>
<stop offset="0.64" stop-color="#83F5B5"/>
<stop offset="1" stop-color="#5AE194"/>
</radialGradient>
<linearGradient id="paint9_linear_1_283" x1="119.782" y1="266.371" x2="174.035" y2="255.33" gradientUnits="userSpaceOnUse">
<stop stop-color="#F1F1F2"/>
<stop offset="0.4" stop-color="white"/>
<stop offset="0.75" stop-color="#FDFDFD"/>
<stop offset="1" stop-color="#F1F1F2"/>
</linearGradient>
<linearGradient id="paint10_linear_1_283" x1="157.856" y1="217.971" x2="187.1" y2="177.693" gradientUnits="userSpaceOnUse">
<stop stop-color="#90D5EE"/>
<stop offset="0.44" stop-color="#8BD4EF"/>
<stop offset="0.89" stop-color="#26A9E0"/>
</linearGradient>
<radialGradient id="paint11_radial_1_283" cx="0" cy="0" r="1" gradientTransform="matrix(-6.13129 -12.1054 -3.58715 2.28561 184.79 190.626)" gradientUnits="userSpaceOnUse">
<stop stop-color="white"/>
<stop offset="0.47" stop-color="#FEFEFE"/>
<stop offset="0.76" stop-color="#FCFCFC"/>
<stop offset="1" stop-color="#F1F1F2"/>
</radialGradient>
<linearGradient id="paint12_linear_1_283" x1="213.863" y1="200.064" x2="180.144" y2="131.026" gradientUnits="userSpaceOnUse">
<stop stop-color="#90D5EE"/>
<stop offset="0.44" stop-color="#8BD4EF"/>
<stop offset="0.89" stop-color="#26A9E0"/>
</linearGradient>
<linearGradient id="paint13_linear_1_283" x1="125.98" y1="109.36" x2="114.054" y2="67.3434" gradientUnits="userSpaceOnUse">
<stop stop-color="#F1F1F2"/>
<stop offset="0.4" stop-color="white"/>
<stop offset="0.75" stop-color="#FDFDFD"/>
<stop offset="1" stop-color="#F1F1F2"/>
</linearGradient>
<linearGradient id="paint14_linear_1_283" x1="52.3887" y1="86.3666" x2="52.2275" y2="83.8277" gradientUnits="userSpaceOnUse">
<stop stop-color="#F1F1F2"/>
<stop offset="0.4" stop-color="white"/>
<stop offset="0.75" stop-color="#FDFDFD"/>
<stop offset="1" stop-color="#F1F1F2"/>
</linearGradient>
<linearGradient id="paint15_linear_1_283" x1="97.1354" y1="73.6878" x2="96.9641" y2="70.9872" gradientUnits="userSpaceOnUse">
<stop stop-color="#F1F1F2"/>
<stop offset="0.4" stop-color="white"/>
<stop offset="0.75" stop-color="#FDFDFD"/>
<stop offset="1" stop-color="#F1F1F2"/>
</linearGradient>
<linearGradient id="paint16_linear_1_283" x1="123.432" y1="69.9" x2="123.255" y2="67.1105" gradientUnits="userSpaceOnUse">
<stop stop-color="#F1F1F2"/>
<stop offset="0.4" stop-color="white"/>
<stop offset="0.75" stop-color="#FDFDFD"/>
<stop offset="1" stop-color="#F1F1F2"/>
</linearGradient>
<linearGradient id="paint17_linear_1_283" x1="152.051" y1="68.0514" x2="151.868" y2="65.173" gradientUnits="userSpaceOnUse">
<stop stop-color="#F1F1F2"/>
<stop offset="0.4" stop-color="white"/>
<stop offset="0.75" stop-color="#FDFDFD"/>
<stop offset="1" stop-color="#F1F1F2"/>
</linearGradient>
<linearGradient id="paint18_linear_1_283" x1="136.063" y1="203.414" x2="100.064" y2="213.624" gradientUnits="userSpaceOnUse">
<stop stop-color="#77D5F3"/>
<stop offset="1" stop-color="#88FFA9"/>
</linearGradient>
<linearGradient id="paint19_linear_1_283" x1="100.541" y1="198.919" x2="139.425" y2="220.607" gradientUnits="userSpaceOnUse">
<stop stop-color="#77D5F3"/>
<stop offset="1" stop-color="#88FFA9"/>
</linearGradient>
<linearGradient id="paint20_linear_1_283" x1="127.531" y1="194.172" x2="134.491" y2="193.731" gradientUnits="userSpaceOnUse">
<stop stop-color="#90D5EE"/>
<stop offset="1" stop-color="#FF9CED"/>
</linearGradient>
<linearGradient id="paint21_linear_1_283" x1="127.798" y1="195.048" x2="132.796" y2="192.857" gradientUnits="userSpaceOnUse">
<stop stop-color="#90D5EE"/>
<stop offset="1" stop-color="#FF9CED"/>
</linearGradient>
<linearGradient id="paint22_linear_1_283" x1="128.145" y1="195.408" x2="131.2" y2="192.496" gradientUnits="userSpaceOnUse">
<stop stop-color="#90D5EE"/>
<stop offset="1" stop-color="#FF9CED"/>
</linearGradient>
<linearGradient id="paint23_linear_1_283" x1="53.8509" y1="110.385" x2="39.8432" y2="132.626" gradientUnits="userSpaceOnUse">
<stop stop-color="#90D5EE"/>
<stop offset="0.44" stop-color="#8BD4EF"/>
<stop offset="0.89" stop-color="#26A9E0"/>
</linearGradient>
<linearGradient id="paint24_linear_1_283" x1="60.1898" y1="152.3" x2="33.6965" y2="183.726" gradientUnits="userSpaceOnUse">
<stop stop-color="#90D5EE"/>
<stop offset="0.44" stop-color="#8BD4EF"/>
<stop offset="0.89" stop-color="#26A9E0"/>
</linearGradient>
<linearGradient id="paint25_linear_1_283" x1="56.8361" y1="147.524" x2="16.3066" y2="145.889" gradientUnits="userSpaceOnUse">
<stop stop-color="#90D5EE"/>
<stop offset="0.44" stop-color="#8BD4EF"/>
<stop offset="0.89" stop-color="#26A9E0"/>
</linearGradient>
<radialGradient id="paint26_radial_1_283" cx="0" cy="0" r="1" gradientTransform="matrix(-10.6269 -0.852018 0.607368 -2.82943 46.3913 130.703)" gradientUnits="userSpaceOnUse">
<stop stop-color="white"/>
<stop offset="0.47" stop-color="#FEFEFE"/>
<stop offset="0.76" stop-color="#FCFCFC"/>
<stop offset="1" stop-color="#F1F1F2"/>
</radialGradient>
<radialGradient id="paint27_radial_1_283" cx="0" cy="0" r="1" gradientTransform="matrix(105.87 -6.6186 9.484 147.453 131.632 139.078)" gradientUnits="userSpaceOnUse">
<stop stop-color="#90D5EE"/>
<stop offset="0.5" stop-color="#90D5EE"/>
<stop offset="0.83" stop-color="#26A9E0"/>
<stop offset="1"/>
</radialGradient>
<linearGradient id="paint28_linear_1_283" x1="139.632" y1="246.14" x2="134.095" y2="158.888" gradientUnits="userSpaceOnUse">
<stop stop-color="#F1F1F2"/>
<stop offset="0.4" stop-color="white"/>
<stop offset="0.75" stop-color="#FDFDFD"/>
<stop offset="1" stop-color="#F1F1F2"/>
</linearGradient>
<radialGradient id="paint29_radial_1_283" cx="0" cy="0" r="1" gradientTransform="matrix(59.7369 -3.73454 4.18332 65.0399 120.998 54.8069)" gradientUnits="userSpaceOnUse">
<stop stop-color="#88FFBD"/>
<stop offset="0.32" stop-color="#83F5B5"/>
<stop offset="1" stop-color="#5AE194"/>
</radialGradient>
<radialGradient id="paint30_radial_1_283" cx="0" cy="0" r="1" gradientTransform="matrix(13.7099 -3.4322 2.60831 10.1316 99.0672 257.293)" gradientUnits="userSpaceOnUse">
<stop stop-color="#88FFBD"/>
<stop offset="0.64" stop-color="#83F5B5"/>
<stop offset="1" stop-color="#5AE194"/>
</radialGradient>
<linearGradient id="paint31_linear_1_283" x1="81.7097" y1="267.239" x2="116.698" y2="258.357" gradientUnits="userSpaceOnUse">
<stop stop-color="#F1F1F2"/>
<stop offset="0.4" stop-color="white"/>
<stop offset="0.75" stop-color="#FDFDFD"/>
<stop offset="1" stop-color="#F1F1F2"/>
</linearGradient>
<radialGradient id="paint32_radial_1_283" cx="0" cy="0" r="1" gradientTransform="matrix(15.3878 -3.08854 2.3497 11.3787 148.638 257.385)" gradientUnits="userSpaceOnUse">
<stop stop-color="#88FFBD"/>
<stop offset="0.64" stop-color="#83F5B5"/>
<stop offset="1" stop-color="#5AE194"/>
</radialGradient>
<linearGradient id="paint33_linear_1_283" x1="129.059" y1="265.698" x2="169.82" y2="257.402" gradientUnits="userSpaceOnUse">
<stop stop-color="#F1F1F2"/>
<stop offset="0.4" stop-color="white"/>
<stop offset="0.75" stop-color="#FDFDFD"/>
<stop offset="1" stop-color="#F1F1F2"/>
</linearGradient>
<linearGradient id="paint34_linear_1_283" x1="163.858" y1="210.216" x2="185.029" y2="181.062" gradientUnits="userSpaceOnUse">
<stop stop-color="#90D5EE"/>
<stop offset="0.44" stop-color="#8BD4EF"/>
<stop offset="0.89" stop-color="#26A9E0"/>
</linearGradient>
<radialGradient id="paint35_radial_1_283" cx="0" cy="0" r="1" gradientTransform="matrix(-6.13129 -12.1054 -3.58715 2.28561 186.739 188.427)" gradientUnits="userSpaceOnUse">
<stop stop-color="white"/>
<stop offset="0.47" stop-color="#FEFEFE"/>
<stop offset="0.76" stop-color="#FCFCFC"/>
<stop offset="1" stop-color="#F1F1F2"/>
</radialGradient>
<linearGradient id="paint36_linear_1_283" x1="212.78" y1="191.677" x2="185.368" y2="135.552" gradientUnits="userSpaceOnUse">
<stop stop-color="#90D5EE"/>
<stop offset="0.44" stop-color="#8BD4EF"/>
<stop offset="0.89" stop-color="#26A9E0"/>
</linearGradient>
<linearGradient id="paint37_linear_1_283" x1="127.925" y1="107.166" x2="116" y2="65.1493" gradientUnits="userSpaceOnUse">
<stop stop-color="#F1F1F2"/>
<stop offset="0.4" stop-color="white"/>
<stop offset="0.75" stop-color="#FDFDFD"/>
<stop offset="1" stop-color="#F1F1F2"/>
</linearGradient>
<linearGradient id="paint38_linear_1_283" x1="54.327" y1="84.1735" x2="54.1659" y2="81.6346" gradientUnits="userSpaceOnUse">
<stop stop-color="#F1F1F2"/>
<stop offset="0.4" stop-color="white"/>
<stop offset="0.75" stop-color="#FDFDFD"/>
<stop offset="1" stop-color="#F1F1F2"/>
</linearGradient>
<linearGradient id="paint39_linear_1_283" x1="99.0738" y1="71.4947" x2="98.9025" y2="68.7941" gradientUnits="userSpaceOnUse">
<stop stop-color="#F1F1F2"/>
<stop offset="0.4" stop-color="white"/>
<stop offset="0.75" stop-color="#FDFDFD"/>
<stop offset="1" stop-color="#F1F1F2"/>
</linearGradient>
<linearGradient id="paint40_linear_1_283" x1="125.379" y1="67.7064" x2="125.202" y2="64.9169" gradientUnits="userSpaceOnUse">
<stop stop-color="#F1F1F2"/>
<stop offset="0.4" stop-color="white"/>
<stop offset="0.75" stop-color="#FDFDFD"/>
<stop offset="1" stop-color="#F1F1F2"/>
</linearGradient>
<linearGradient id="paint41_linear_1_283" x1="153.997" y1="65.8576" x2="153.815" y2="62.9791" gradientUnits="userSpaceOnUse">
<stop stop-color="#F1F1F2"/>
<stop offset="0.4" stop-color="white"/>
<stop offset="0.75" stop-color="#FDFDFD"/>
<stop offset="1" stop-color="#F1F1F2"/>
</linearGradient>
<linearGradient id="paint42_linear_1_283" x1="138.01" y1="201.228" x2="102.012" y2="211.438" gradientUnits="userSpaceOnUse">
<stop stop-color="#77D5F3"/>
<stop offset="1" stop-color="#88FFA9"/>
</linearGradient>
<linearGradient id="paint43_linear_1_283" x1="102.486" y1="196.724" x2="141.37" y2="218.413" gradientUnits="userSpaceOnUse">
<stop stop-color="#77D5F3"/>
<stop offset="1" stop-color="#88FFA9"/>
</linearGradient>
<linearGradient id="paint44_linear_1_283" x1="129.478" y1="191.978" x2="136.429" y2="191.538" gradientUnits="userSpaceOnUse">
<stop stop-color="#90D5EE"/>
<stop offset="1" stop-color="#FF9CED"/>
</linearGradient>
<linearGradient id="paint45_linear_1_283" x1="129.744" y1="192.855" x2="134.743" y2="190.663" gradientUnits="userSpaceOnUse">
<stop stop-color="#90D5EE"/>
<stop offset="1" stop-color="#FF9CED"/>
</linearGradient>
<linearGradient id="paint46_linear_1_283" x1="130.092" y1="193.214" x2="133.146" y2="190.302" gradientUnits="userSpaceOnUse">
<stop stop-color="#90D5EE"/>
<stop offset="1" stop-color="#FF9CED"/>
</linearGradient>
</defs>
</svg>
