<svg width="112" height="155" viewBox="0 0 112 155" fill="none" xmlns="http://www.w3.org/2000/svg">
<path d="M95.4227 18.1792H15.9272V23.5686H95.4227V18.1792Z" fill="white"/>
<path d="M111.251 43.0247V135.511C111.251 146.257 102.542 154.983 91.7972 154.983H19.5608C8.81642 154.983 0.0906982 146.257 0.0906982 135.511V43.0247C0.0906982 32.2788 8.81642 23.5684 19.5608 23.5684H91.7972C102.542 23.5684 111.251 32.2788 111.251 43.0247Z" fill="white"/>
<path opacity="0.5" d="M111.243 120.133V135.511C111.243 146.256 102.542 154.983 91.789 154.983H19.5444C8.81642 154.983 0.0742188 146.265 0.0742188 135.511V120.133H111.234H111.243Z" fill="#F3FFC8"/>
<path d="M98.8091 50.2603V133.541C98.8091 138.552 94.7552 142.589 89.7621 142.589H21.4806C16.471 142.589 12.4336 138.552 12.4336 133.541V50.2603H98.8091Z" fill="#005C6C"/>
<path d="M87.9575 84.0557H23.3428V125.778H87.9575V84.0557Z" fill="#5D4BD8"/>
<path d="M53.0218 85.0858V92.7249H23.3428V85.0858C23.3428 84.7397 23.3592 84.4018 23.3757 84.0557C23.5075 82.2427 23.9525 80.5039 24.6858 78.9217C27.0259 73.8042 32.1921 70.2524 38.1823 70.2524C44.1724 70.2524 49.3387 73.8042 51.6787 78.9217C52.412 80.5121 52.8569 82.2427 52.9888 84.0557C53.0053 84.4018 53.0218 84.7397 53.0218 85.0858Z" fill="#FF9CED"/>
<path d="M53.0218 85.0858V92.7249H23.3428V85.0858C23.3428 84.7396 23.3592 84.4018 23.3757 84.0557H52.9888C53.0053 84.4018 53.0218 84.7396 53.0218 85.0858Z" fill="#7F3F97"/>
<path d="M87.9905 85.0858V92.7249H58.3115V85.0858C58.3115 84.7397 58.328 84.4018 58.3445 84.0557C58.4763 82.2427 58.9213 80.5039 59.6546 78.9217C61.9946 73.8042 67.1608 70.2524 73.151 70.2524C79.1412 70.2524 84.3074 73.8042 86.6475 78.9217C87.3808 80.5121 87.8257 82.2427 87.9575 84.0557C87.974 84.4018 87.9905 84.7397 87.9905 85.0858Z" fill="#FF9CED"/>
<path d="M87.9905 85.0858V92.7249H58.3115V85.0858C58.3115 84.7396 58.328 84.4018 58.3445 84.0557H87.9575C87.974 84.4018 87.9905 84.7396 87.9905 85.0858Z" fill="#7F3F97"/>
<path d="M70.4649 98.6746V106.314H40.7859V98.6746C40.7859 98.3285 40.8025 97.9907 40.8189 97.6445C40.9508 95.8316 41.3957 94.0928 42.129 92.5105C44.469 87.393 49.6353 83.8413 55.6254 83.8413C61.6156 83.8413 66.7818 87.393 69.1219 92.5105C69.8552 94.101 70.3002 95.8316 70.4321 97.6445C70.4485 97.9907 70.4649 98.3285 70.4649 98.6746Z" fill="#FF9CED"/>
<path d="M70.4649 98.6746V106.314H40.7859V98.6746C40.7859 98.3285 40.8025 97.9906 40.8189 97.6445H70.4321C70.4485 97.9906 70.4649 98.3285 70.4649 98.6746Z" fill="#7F3F97"/>
<path d="M52.9064 112.478V120.117H23.2274V112.478C23.2274 112.132 23.2439 111.794 23.2604 111.448C23.3922 109.635 23.8372 107.896 24.5705 106.314C26.9105 101.196 32.0767 97.6445 38.0669 97.6445C44.0571 97.6445 49.2233 101.196 51.5634 106.314C52.2967 107.904 52.7416 109.635 52.8734 111.448C52.8899 111.794 52.9064 112.132 52.9064 112.478Z" fill="#FF9CED"/>
<path d="M52.9064 112.478V120.117H23.2274V112.478C23.2274 112.132 23.2439 111.794 23.2604 111.448H52.8734C52.8899 111.794 52.9064 112.132 52.9064 112.478Z" fill="#7F3F97"/>
<path d="M87.8834 112.478V120.117H58.2044V112.478C58.2044 112.132 58.2209 111.794 58.2374 111.448C58.3692 109.635 58.8141 107.896 59.5475 106.314C61.8875 101.196 67.0537 97.6445 73.0439 97.6445C79.0341 97.6445 84.2003 101.196 86.5403 106.314C87.2737 107.904 87.7186 109.635 87.8504 111.448C87.8669 111.794 87.8834 112.132 87.8834 112.478Z" fill="#FF9CED"/>
<path d="M87.8834 112.478V120.117H58.2044V112.478C58.2044 112.132 58.2209 111.794 58.2374 111.448H87.8504C87.8669 111.794 87.8834 112.132 87.8834 112.478Z" fill="#7F3F97"/>
<path d="M98.1499 18.1791H13.101C8.08307 18.1791 4.0127 14.1081 4.0127 9.08951C4.0127 4.0709 8.08307 0 13.101 0H98.1499C103.168 0 107.238 4.0709 107.238 9.08951C107.238 14.1081 103.168 18.1791 98.1499 18.1791Z" fill="#1A8493"/>
<path d="M98.8091 120.133V133.533C98.8091 138.543 94.7552 142.581 89.7621 142.581H21.4806C16.471 142.581 12.4336 138.543 12.4336 133.533V120.133H98.8091Z" fill="#001F2D"/>
<path d="M8.87405 23.5684H102.369C107.271 23.5684 111.251 27.5486 111.251 32.4519V50.2684H0V32.4519C0 27.5486 3.97974 23.5684 8.88229 23.5684H8.87405Z" fill="#1A8493"/>
<path d="M36.0481 25.6287C31.7224 28.5624 30.5853 34.4463 33.5186 38.7727C36.4519 43.099 42.3349 44.2363 46.6607 41.3026C50.9865 38.3689 55.6749 23.758 55.6749 23.758C55.6749 23.758 40.3658 22.695 36.04 25.6287H36.0481Z" stroke="white" stroke-miterlimit="10"/>
<path d="M75.3098 25.6287C79.6356 28.5624 80.7727 34.4463 77.8394 38.7727C74.9061 43.099 69.023 44.2363 64.6972 41.3026C60.3714 38.3689 55.6832 23.758 55.6832 23.758C55.6832 23.758 70.9923 22.695 75.3181 25.6287H75.3098Z" stroke="white" stroke-miterlimit="10"/>
<g opacity="0.25">
<path d="M95.4227 18.1792H15.9272V23.5686H95.4227V18.1792Z" fill="url(#paint0_linear_1_1191)"/>
<path d="M111.251 43.0247V135.511C111.251 146.257 102.542 154.983 91.7972 154.983H19.5608C8.81642 154.983 0.0906982 146.257 0.0906982 135.511V43.0247C0.0906982 32.2788 8.81642 23.5684 19.5608 23.5684H91.7972C102.542 23.5684 111.251 32.2788 111.251 43.0247Z" fill="url(#paint1_linear_1_1191)"/>
<path opacity="0.5" d="M111.243 120.133V135.511C111.243 146.256 102.542 154.983 91.789 154.983H19.5444C8.81642 154.983 0.0742188 146.265 0.0742188 135.511V120.133H111.234H111.243Z" fill="url(#paint2_linear_1_1191)"/>
<path d="M98.8091 50.2603V133.541C98.8091 138.552 94.7552 142.589 89.7621 142.589H21.4806C16.471 142.589 12.4336 138.552 12.4336 133.541V50.2603H98.8091Z" fill="url(#paint3_linear_1_1191)"/>
<path d="M87.9575 84.0557H23.3428V125.778H87.9575V84.0557Z" fill="url(#paint4_linear_1_1191)"/>
<path d="M53.0218 85.0858V92.7249H23.3428V85.0858C23.3428 84.7397 23.3592 84.4018 23.3757 84.0557C23.5075 82.2427 23.9525 80.5039 24.6858 78.9217C27.0259 73.8042 32.1921 70.2524 38.1823 70.2524C44.1724 70.2524 49.3387 73.8042 51.6787 78.9217C52.412 80.5121 52.8569 82.2427 52.9888 84.0557C53.0053 84.4018 53.0218 84.7397 53.0218 85.0858Z" fill="url(#paint5_linear_1_1191)"/>
<path d="M53.0218 85.0858V92.7249H23.3428V85.0858C23.3428 84.7396 23.3592 84.4018 23.3757 84.0557H52.9888C53.0053 84.4018 53.0218 84.7396 53.0218 85.0858Z" fill="url(#paint6_linear_1_1191)"/>
<path d="M87.9905 85.0858V92.7249H58.3115V85.0858C58.3115 84.7397 58.328 84.4018 58.3445 84.0557C58.4763 82.2427 58.9213 80.5039 59.6546 78.9217C61.9946 73.8042 67.1608 70.2524 73.151 70.2524C79.1412 70.2524 84.3074 73.8042 86.6475 78.9217C87.3808 80.5121 87.8257 82.2427 87.9575 84.0557C87.974 84.4018 87.9905 84.7397 87.9905 85.0858Z" fill="url(#paint7_linear_1_1191)"/>
<path d="M87.9905 85.0858V92.7249H58.3115V85.0858C58.3115 84.7396 58.328 84.4018 58.3445 84.0557H87.9575C87.974 84.4018 87.9905 84.7396 87.9905 85.0858Z" fill="url(#paint8_linear_1_1191)"/>
<path d="M70.4649 98.6746V106.314H40.7859V98.6746C40.7859 98.3285 40.8025 97.9907 40.8189 97.6445C40.9508 95.8316 41.3957 94.0928 42.129 92.5105C44.469 87.393 49.6353 83.8413 55.6254 83.8413C61.6156 83.8413 66.7818 87.393 69.1219 92.5105C69.8552 94.101 70.3002 95.8316 70.4321 97.6445C70.4485 97.9907 70.4649 98.3285 70.4649 98.6746Z" fill="url(#paint9_linear_1_1191)"/>
<path d="M70.4649 98.6746V106.314H40.7859V98.6746C40.7859 98.3285 40.8025 97.9906 40.8189 97.6445H70.4321C70.4485 97.9906 70.4649 98.3285 70.4649 98.6746Z" fill="url(#paint10_linear_1_1191)"/>
<path d="M52.9064 112.478V120.117H23.2274V112.478C23.2274 112.132 23.2439 111.794 23.2604 111.448C23.3922 109.635 23.8372 107.896 24.5705 106.314C26.9105 101.196 32.0767 97.6445 38.0669 97.6445C44.0571 97.6445 49.2233 101.196 51.5634 106.314C52.2967 107.904 52.7416 109.635 52.8734 111.448C52.8899 111.794 52.9064 112.132 52.9064 112.478Z" fill="url(#paint11_linear_1_1191)"/>
<path d="M52.9064 112.478V120.117H23.2274V112.478C23.2274 112.132 23.2439 111.794 23.2604 111.448H52.8734C52.8899 111.794 52.9064 112.132 52.9064 112.478Z" fill="url(#paint12_linear_1_1191)"/>
<path d="M87.8834 112.478V120.117H58.2044V112.478C58.2044 112.132 58.2209 111.794 58.2374 111.448C58.3692 109.635 58.8141 107.896 59.5475 106.314C61.8875 101.196 67.0537 97.6445 73.0439 97.6445C79.0341 97.6445 84.2003 101.196 86.5403 106.314C87.2737 107.904 87.7186 109.635 87.8504 111.448C87.8669 111.794 87.8834 112.132 87.8834 112.478Z" fill="url(#paint13_linear_1_1191)"/>
<path d="M87.8834 112.478V120.117H58.2044V112.478C58.2044 112.132 58.2209 111.794 58.2374 111.448H87.8504C87.8669 111.794 87.8834 112.132 87.8834 112.478Z" fill="url(#paint14_linear_1_1191)"/>
<path d="M98.1499 18.1791H13.101C8.08307 18.1791 4.0127 14.1081 4.0127 9.08951C4.0127 4.0709 8.08307 0 13.101 0H98.1499C103.168 0 107.238 4.0709 107.238 9.08951C107.238 14.1081 103.168 18.1791 98.1499 18.1791Z" fill="url(#paint15_linear_1_1191)"/>
<path d="M98.8091 120.133V133.533C98.8091 138.543 94.7552 142.581 89.7621 142.581H21.4806C16.471 142.581 12.4336 138.543 12.4336 133.533V120.133H98.8091Z" fill="url(#paint16_linear_1_1191)"/>
<path d="M8.87405 23.5684H102.369C107.271 23.5684 111.251 27.5486 111.251 32.4519V50.2684H0V32.4519C0 27.5486 3.97974 23.5684 8.88229 23.5684H8.87405Z" fill="url(#paint17_linear_1_1191)"/>
<path d="M36.0481 25.6287C31.7224 28.5624 30.5853 34.4463 33.5186 38.7727C36.4519 43.099 42.3349 44.2363 46.6607 41.3026C50.9865 38.3689 55.6749 23.758 55.6749 23.758C55.6749 23.758 40.3658 22.695 36.04 25.6287H36.0481Z" fill="url(#paint18_linear_1_1191)" stroke="white" stroke-miterlimit="10"/>
<path d="M75.3098 25.6287C79.6356 28.5624 80.7727 34.4463 77.8394 38.7727C74.9061 43.099 69.023 44.2363 64.6972 41.3026C60.3714 38.3689 55.6832 23.758 55.6832 23.758C55.6832 23.758 70.9923 22.695 75.3181 25.6287H75.3098Z" fill="url(#paint19_linear_1_1191)" stroke="white" stroke-miterlimit="10"/>
</g>
<defs>
<linearGradient id="paint0_linear_1_1191" x1="24.1256" y1="38.3607" x2="87.2201" y2="3.38623" gradientUnits="userSpaceOnUse">
<stop stop-color="white"/>
<stop offset="1" stop-color="#231F20"/>
</linearGradient>
<linearGradient id="paint1_linear_1_1191" x1="-8.58558" y1="124.905" x2="119.944" y2="53.6707" gradientUnits="userSpaceOnUse">
<stop stop-color="white"/>
<stop offset="1" stop-color="#231F20"/>
</linearGradient>
<linearGradient id="paint2_linear_1_1191" x1="10.1842" y1="158.774" x2="103.883" y2="106.852" gradientUnits="userSpaceOnUse">
<stop stop-color="white"/>
<stop offset="1" stop-color="#231F20"/>
</linearGradient>
<linearGradient id="paint3_linear_1_1191" x1="5.06741" y1="122.589" x2="107.451" y2="65.8475" gradientUnits="userSpaceOnUse">
<stop stop-color="white"/>
<stop offset="1" stop-color="#231F20"/>
</linearGradient>
<linearGradient id="paint4_linear_1_1191" x1="22.0904" y1="123.521" x2="89.2144" y2="86.3216" gradientUnits="userSpaceOnUse">
<stop stop-color="white"/>
<stop offset="1" stop-color="#231F20"/>
</linearGradient>
<linearGradient id="paint5_linear_1_1191" x1="23.3593" y1="92.7579" x2="50.9307" y2="77.4746" gradientUnits="userSpaceOnUse">
<stop stop-color="white"/>
<stop offset="1" stop-color="#231F20"/>
</linearGradient>
<linearGradient id="paint6_linear_1_1191" x1="24.9989" y1="95.7163" x2="51.3508" y2="81.1085" gradientUnits="userSpaceOnUse">
<stop stop-color="white"/>
<stop offset="1" stop-color="#231F20"/>
</linearGradient>
<linearGradient id="paint7_linear_1_1191" x1="58.328" y1="92.7579" x2="85.8995" y2="77.4746" gradientUnits="userSpaceOnUse">
<stop stop-color="white"/>
<stop offset="1" stop-color="#231F20"/>
</linearGradient>
<linearGradient id="paint8_linear_1_1191" x1="59.9677" y1="95.7163" x2="86.3196" y2="81.1085" gradientUnits="userSpaceOnUse">
<stop stop-color="white"/>
<stop offset="1" stop-color="#231F20"/>
</linearGradient>
<linearGradient id="paint9_linear_1_1191" x1="40.8024" y1="106.338" x2="68.3739" y2="91.0552" gradientUnits="userSpaceOnUse">
<stop stop-color="white"/>
<stop offset="1" stop-color="#231F20"/>
</linearGradient>
<linearGradient id="paint10_linear_1_1191" x1="42.4421" y1="109.297" x2="68.794" y2="94.6892" gradientUnits="userSpaceOnUse">
<stop stop-color="white"/>
<stop offset="1" stop-color="#231F20"/>
</linearGradient>
<linearGradient id="paint11_linear_1_1191" x1="23.2439" y1="120.15" x2="50.8154" y2="104.867" gradientUnits="userSpaceOnUse">
<stop stop-color="white"/>
<stop offset="1" stop-color="#231F20"/>
</linearGradient>
<linearGradient id="paint12_linear_1_1191" x1="24.8836" y1="123.1" x2="51.2437" y2="108.501" gradientUnits="userSpaceOnUse">
<stop stop-color="white"/>
<stop offset="1" stop-color="#231F20"/>
</linearGradient>
<linearGradient id="paint13_linear_1_1191" x1="58.2209" y1="120.15" x2="85.7841" y2="104.867" gradientUnits="userSpaceOnUse">
<stop stop-color="white"/>
<stop offset="1" stop-color="#231F20"/>
</linearGradient>
<linearGradient id="paint14_linear_1_1191" x1="59.8606" y1="123.1" x2="86.2124" y2="108.501" gradientUnits="userSpaceOnUse">
<stop stop-color="white"/>
<stop offset="1" stop-color="#231F20"/>
</linearGradient>
<linearGradient id="paint15_linear_1_1191" x1="15.1444" y1="31.5291" x2="96.1036" y2="-13.3404" gradientUnits="userSpaceOnUse">
<stop stop-color="white"/>
<stop offset="1" stop-color="#231F20"/>
</linearGradient>
<linearGradient id="paint16_linear_1_1191" x1="19.8822" y1="149.322" x2="92.6342" y2="108.992" gradientUnits="userSpaceOnUse">
<stop stop-color="white"/>
<stop offset="1" stop-color="#231F20"/>
</linearGradient>
<linearGradient id="paint17_linear_1_1191" x1="8.18191" y1="65.0358" x2="101.823" y2="13.1385" gradientUnits="userSpaceOnUse">
<stop stop-color="white"/>
<stop offset="1" stop-color="#231F20"/>
</linearGradient>
<linearGradient id="paint18_linear_1_1191" x1="33.0819" y1="38.064" x2="56.4345" y2="25.1205" gradientUnits="userSpaceOnUse">
<stop stop-color="white"/>
<stop offset="1" stop-color="#231F20"/>
</linearGradient>
<linearGradient id="paint19_linear_1_1191" x1="60.3797" y1="35.3939" x2="76.8435" y2="26.2652" gradientUnits="userSpaceOnUse">
<stop stop-color="white"/>
<stop offset="1" stop-color="#231F20"/>
</linearGradient>
</defs>
</svg>
