<svg width="142" height="172" viewBox="0 0 142 172" fill="none" xmlns="http://www.w3.org/2000/svg">
<path d="M141.07 0V151.316H0.00817871V20.1733C0.00817871 9.04832 9.05532 0 20.1705 0H141.07Z" fill="#88FFBD"/>
<path d="M129.197 13.6465V113.846H40.6376V13.6465H129.197Z" fill="#5AE194"/>
<path d="M63.8114 83.7651H106.006V41.5643L63.8114 41.5643L63.8114 83.7651Z" fill="#88FFBD"/>
<path d="M114.748 62.6681L84.9117 32.8276L55.0754 62.6681L84.9117 92.5086L114.748 62.6681Z" fill="#F3FFC8"/>
<path opacity="0.5" d="M28.1299 0V151.316H0.00817871V20.1733C0.00817871 9.04832 9.05532 0 20.1705 0H28.1299Z" fill="#14B576"/>
<path d="M141.07 130.69V167.336H19.7585C13.9578 167.336 8.77512 164.633 5.42161 160.406C4.30926 159.013 3.39466 157.456 2.7355 155.775C2.18344 154.374 1.78793 152.874 1.59018 151.316C1.49131 150.55 1.45007 149.784 1.45007 149.001C1.45007 148.218 1.49131 147.443 1.59018 146.677C1.78793 145.119 2.1752 143.636 2.7355 142.235C3.4029 140.546 4.31752 138.98 5.4381 137.596C5.86656 137.052 6.31967 136.524 6.81405 136.038C10.1346 132.725 14.7077 130.682 19.775 130.682H141.086L141.07 130.69Z" fill="#F3FFC8"/>
<path d="M9.07169 149.009C9.07169 156.615 15.2597 162.796 22.8566 162.796H141.062V171.861H22.8566C10.2583 171.861 0 161.609 0 149.001C0 136.393 10.2583 126.141 22.8566 126.141H141.062V135.214H22.8566C15.2597 135.214 9.07169 141.395 9.07169 148.993V149.009Z" fill="#10B5AE"/>
<path d="M127.524 132.503V155.322L118.724 151.028L109.924 155.322V132.503H127.524Z" fill="#105A74"/>
<path d="M95.3896 62.6624C95.3896 68.4556 90.7013 73.1446 84.9088 73.1446C79.1164 73.1446 74.4281 68.4556 74.4281 62.6624C74.4281 56.8691 79.1164 52.1802 84.9088 52.1802C90.7013 52.1802 95.3896 56.8691 95.3896 62.6624Z" fill="#88FFBD"/>
<g opacity="0.25">
<path d="M141.07 0V151.316H0.00817871V20.1733C0.00817871 9.04832 9.05532 0 20.1705 0H141.07Z" fill="url(#paint0_linear_1_1063)"/>
<path d="M129.197 13.6465V113.846H40.6376V13.6465H129.197Z" fill="url(#paint1_linear_1_1063)"/>
<path d="M63.8114 83.7651H106.006V41.5643L63.8114 41.5643L63.8114 83.7651Z" fill="url(#paint2_linear_1_1063)"/>
<path d="M114.748 62.6681L84.9117 32.8276L55.0754 62.6681L84.9117 92.5086L114.748 62.6681Z" fill="url(#paint3_linear_1_1063)"/>
<path opacity="0.5" d="M28.1299 0V151.316H0.00817871V20.1733C0.00817871 9.04832 9.05532 0 20.1705 0H28.1299Z" fill="url(#paint4_linear_1_1063)"/>
<path d="M141.07 130.69V167.336H19.7585C13.9578 167.336 8.77512 164.633 5.42161 160.406C4.30926 159.013 3.39466 157.456 2.7355 155.775C2.18344 154.374 1.78793 152.874 1.59018 151.316C1.49131 150.55 1.45007 149.784 1.45007 149.001C1.45007 148.218 1.49131 147.443 1.59018 146.677C1.78793 145.119 2.1752 143.636 2.7355 142.235C3.4029 140.546 4.31752 138.98 5.4381 137.596C5.86656 137.052 6.31967 136.524 6.81405 136.038C10.1346 132.725 14.7077 130.682 19.775 130.682H141.086L141.07 130.69Z" fill="url(#paint5_linear_1_1063)"/>
<path d="M9.07169 149.009C9.07169 156.615 15.2597 162.796 22.8566 162.796H141.062V171.861H22.8566C10.2583 171.861 0 161.609 0 149.001C0 136.393 10.2583 126.141 22.8566 126.141H141.062V135.214H22.8566C15.2597 135.214 9.07169 141.395 9.07169 148.993V149.009Z" fill="url(#paint6_linear_1_1063)"/>
<path d="M127.524 132.503V155.322L118.724 151.028L109.924 155.322V132.503H127.524Z" fill="url(#paint7_linear_1_1063)"/>
<path d="M95.3896 62.6624C95.3896 68.4556 90.7013 73.1446 84.9088 73.1446C79.1164 73.1446 74.4281 68.4556 74.4281 62.6624C74.4281 56.8691 79.1164 52.1802 84.9088 52.1802C90.7013 52.1802 95.3896 56.8691 95.3896 62.6624Z" fill="url(#paint8_linear_1_1063)"/>
</g>
<defs>
<linearGradient id="paint0_linear_1_1063" x1="-9.146" y1="31.4879" x2="156.579" y2="123.336" gradientUnits="userSpaceOnUse">
<stop stop-color="white"/>
<stop offset="1"/>
</linearGradient>
<linearGradient id="paint1_linear_1_1063" x1="29.8025" y1="33.1935" x2="140.039" y2="94.2855" gradientUnits="userSpaceOnUse">
<stop stop-color="white"/>
<stop offset="1"/>
</linearGradient>
<linearGradient id="paint2_linear_1_1063" x1="59.8276" y1="48.7603" x2="109.993" y2="76.5668" gradientUnits="userSpaceOnUse">
<stop stop-color="white"/>
<stop offset="1"/>
</linearGradient>
<linearGradient id="paint3_linear_1_1063" x1="62.0935" y1="50.0133" x2="107.735" y2="75.3151" gradientUnits="userSpaceOnUse">
<stop stop-color="white"/>
<stop offset="1"/>
</linearGradient>
<linearGradient id="paint4_linear_1_1063" x1="-22.42" y1="55.4355" x2="56.9077" y2="99.3986" gradientUnits="userSpaceOnUse">
<stop stop-color="white"/>
<stop offset="1"/>
</linearGradient>
<linearGradient id="paint5_linear_1_1063" x1="17.4266" y1="115.403" x2="134.033" y2="180.03" gradientUnits="userSpaceOnUse">
<stop stop-color="white"/>
<stop offset="1"/>
</linearGradient>
<linearGradient id="paint6_linear_1_1063" x1="16.0754" y1="114.118" x2="136.183" y2="180.68" gradientUnits="userSpaceOnUse">
<stop stop-color="white"/>
<stop offset="1"/>
</linearGradient>
<linearGradient id="paint7_linear_1_1063" x1="107.156" y1="137.497" x2="130.294" y2="150.317" gradientUnits="userSpaceOnUse">
<stop stop-color="white"/>
<stop offset="1"/>
</linearGradient>
<linearGradient id="paint8_linear_1_1063" x1="75.7382" y1="57.5779" x2="94.0725" y2="67.7447" gradientUnits="userSpaceOnUse">
<stop stop-color="white"/>
<stop offset="1"/>
</linearGradient>
</defs>
</svg>
