<svg width="227" height="186" viewBox="0 0 227 186" fill="none" xmlns="http://www.w3.org/2000/svg">
<g opacity="0.25">
<path d="M205.083 53.5402L200.074 48.8676C199.851 48.6616 199.695 48.3979 199.621 48.1095L197.758 41.2449C197.643 40.8329 197.379 40.4786 197.009 40.2725L189.824 36.1604C189.552 36.0038 189.338 35.7731 189.198 35.5012C188.711 34.5452 188.069 33.9189 187.912 33.1113C187.83 32.6746 187.533 32.312 187.154 32.0895L131.735 0.00830078H131.718L109.57 20.1404C96.8895 30.7627 85.7331 42.8931 77.7819 57.3886C77.6501 57.6276 77.4606 57.8336 77.2299 57.9737L77.1887 57.9984L76.958 57.8418C76.8673 57.7841 76.7767 57.7264 76.6778 57.6852C69.5176 54.5455 62.2586 52.9798 54.5793 51.4882L4.95224 40.7753L4.68856 41.0225C4.57321 41.484 4.65562 41.657 4.65562 41.657C6.22938 46.7745 6.29528 48.2578 5.97394 48.8182C5.62788 49.4362 4.85336 49.6753 4.17771 49.4775L1.23618 48.6122L3.41144 56.6139L3.39494 56.6799L3.33731 56.6634L2.61222 59.012L0.0826655 66.6017C-0.164522 67.3434 0.156824 68.1592 0.857188 68.5301L53.7553 96.6557C53.8377 96.6969 53.9201 96.7381 54.0107 96.7628L70.3416 102.078C71.4539 102.441 71.8165 103.825 71.0337 104.69L69.1716 106.742C57.7103 119.392 46.249 132.041 34.7878 144.691C34.4582 145.433 33.9474 146.842 34.0215 148.671C34.1039 150.83 34.9608 152.396 35.3975 153.097C48.4572 163.628 61.5252 174.152 74.585 184.683C74.7415 184.757 74.9722 184.873 75.2606 185.005C76.4801 185.549 77.4935 185.837 77.6666 185.878C78.919 186.191 81.2508 184.988 83.5579 182.928C83.8133 182.862 84.0523 182.722 84.2418 182.541C103.333 164.131 122.416 145.713 141.507 127.303C141.944 126.924 142.817 126.256 144.111 125.943C145.866 125.515 147.308 126.001 147.843 126.215C172.372 132.033 196.91 137.851 221.439 143.669C221.579 143.669 221.785 143.669 222.041 143.694C222.922 143.752 223.507 143.875 223.713 143.908C224.241 143.982 225.065 143.826 226.317 142.73C226.424 142.524 226.663 142.013 226.597 141.345C226.506 140.439 225.93 139.895 225.781 139.763L164.668 105.613C163.778 105.119 163.572 103.924 164.24 103.158L205.207 55.7816C205.273 55.7239 205.701 55.2789 205.652 54.6032C205.603 53.9687 205.158 53.6061 205.083 53.5484V53.5402Z" fill="url(#paint0_linear_1_793)"/>
<path d="M189.371 35.9132C188.868 34.6935 188.571 33.4574 188.58 32.3367C188.58 31.9576 188.382 31.6032 188.044 31.4137L131.718 0L108.771 19.2257C95.9832 29.9304 85.3376 42.959 77.37 57.611L76.9497 57.4297C69.7401 54.2406 62.2009 51.8755 54.4639 50.3757L3.86462 40.5445C6.66608 49.6505 5.4549 48.3567 5.08412 49.7493C4.977 50.1531 5.14178 50.5817 5.4796 50.8289C10.7117 54.6526 54.6205 78.3612 55.395 78.7733H55.4033C55.4033 78.7733 91.9293 89.8158 110.246 95.0899C119.408 97.727 128.587 100.372 137.395 104.006C137.461 104.031 137.519 104.056 137.585 104.081C138.022 104.262 138.532 104.122 138.821 103.743C155.259 81.8718 173.765 61.7973 193.622 42.9755C194.1 42.5222 194.042 41.7558 193.507 41.3685C191.818 40.1571 190.269 38.0557 189.379 35.8967L189.371 35.9132Z" fill="url(#paint1_linear_1_793)"/>
<path d="M131.718 0.00830078L108.771 19.234C95.9832 29.9387 85.3376 42.9673 77.37 57.6193L76.9497 57.438C69.7401 54.2489 62.2009 51.8838 54.4639 50.384L3.86462 40.5528L52.4452 69.1646C53.0714 69.5354 53.7471 69.8156 54.4474 70.0134L79.8501 77.0263L87.1009 79.0288L100.737 82.7948L112.833 86.1323C113.262 86.2477 113.682 86.4042 114.077 86.5855L127.788 92.865C131.644 94.6285 136.184 93.1946 138.376 89.5604C143.015 81.8718 148.445 74.6859 154.583 68.118L181.354 39.4979C185.037 35.5588 184.048 29.2052 179.335 26.5764L131.71 0.0165496L131.718 0.00830078Z" fill="url(#paint2_linear_1_793)"/>
<path d="M131.265 1.1207C129.016 1.40088 127.368 2.94195 126.387 4.10389C120.512 9.14722 114.638 14.1905 108.763 19.2339C103.465 23.6756 97.3427 29.5018 91.2537 36.9432C85.9968 43.371 81.3415 50.285 77.3618 57.6192L130.26 93.0379C132.633 94.6284 135.855 93.8703 137.288 91.398C142.158 83.009 147.958 75.1967 154.591 68.1097L184.295 36.3499C186.487 34.0013 185.894 30.2188 183.092 28.6613C166.687 19.5141 147.085 9.64164 136.514 2.68646C135.83 2.23322 133.778 0.815789 131.265 1.1207Z" fill="url(#paint3_linear_1_793)"/>
<path d="M189.371 35.9131C189.914 37.2316 190.697 38.5254 191.612 39.6049C191.612 39.6049 192.699 40.2889 193.655 41.4921C193.738 41.5992 193.902 41.8217 193.952 42.1348C193.952 42.1348 193.993 42.4068 193.919 42.7034C193.787 43.1979 189.684 47.137 183.974 52.3369C177.794 58.435 171.482 64.9864 165.13 72.0158C155.11 83.0996 146.212 93.9773 138.335 104.402C138.022 104.27 137.708 104.138 137.395 104.015C128.587 100.38 119.408 97.7351 110.246 95.0981C91.9293 89.824 55.4033 78.7814 55.4033 78.7814C55.4033 78.7814 55.4033 78.7814 55.395 78.7814C54.5875 78.3447 6.08107 52.1638 4.99345 50.4085C5.00169 50.1283 5.04292 49.9223 5.08412 49.7493C4.65566 49.4279 3.96353 48.9911 3.01598 48.7109C2.41449 48.5296 2.01895 48.4143 1.74705 48.5956C0.931329 49.123 1.89539 51.793 1.93659 51.9083C2.43097 53.4823 2.91708 55.0481 3.41146 56.6221C12.5656 62.6873 20.5251 67.8624 26.9108 71.9746C44.1562 83.0913 49.2483 86.0497 56.2272 88.8516C65.5791 92.6011 72.9535 93.9279 77.2052 94.752C90.4215 97.3066 110.6 102.202 140.485 112.544C160.244 91.2332 180.01 69.9226 199.769 48.612L197.594 40.6103L189.387 35.9131H189.371Z" fill="url(#paint4_linear_1_793)"/>
<path d="M189.371 35.9131C189.371 35.9131 189.362 35.8802 189.354 35.8719C188.703 34.2732 186.627 33.8612 185.449 35.122L154.591 68.1097C147.011 76.2103 140.518 85.2587 135.261 95.0322C134.923 95.6667 134.89 96.4166 135.179 97.0759L136.736 100.694C137.445 102.342 139.669 102.622 140.757 101.196C156.412 80.7015 173.872 61.7973 192.551 44.0055C193.532 43.0661 193.515 41.5086 192.526 40.5774C191.233 39.3495 190.087 37.6519 189.371 35.9131Z" fill="url(#paint5_linear_1_793)"/>
<path d="M76.9827 104.245C74.3707 103.396 71.4951 104.155 69.6495 106.198L69.1551 106.742L35.5046 143.883C32.8021 146.866 33.1728 151.506 36.3121 154.019L70.0367 181.049C72.937 183.373 77.1475 183.019 79.6194 180.241L89.5893 169.026L124.327 129.948C127.673 126.182 126.058 120.224 121.27 118.667L76.9745 104.245H76.9827Z" fill="url(#paint6_linear_1_793)"/>
<path d="M162.938 104.641C160.268 106.891 158.365 109.017 157.088 110.591C154.707 113.533 154.525 114.555 154.748 115.338C155.251 117.142 157.895 117.793 158.456 117.917C193.243 130.468 218.984 139.063 225.617 140.447C225.963 140.521 226.539 140.628 226.638 140.447C227.363 138.972 196.374 122.219 162.946 104.641H162.938Z" fill="url(#paint7_linear_1_793)"/>
<path d="M94.7308 163.232L127.17 126.742C129.172 124.493 128.208 120.924 125.341 119.985L75.2524 103.677C73.6869 103.166 71.9648 103.627 70.8607 104.847C69.8143 106.009 69.4929 107.657 70.045 109.124C76.513 126.421 82.6433 143.883 87.5788 161.584C88.4687 164.765 92.5308 165.705 94.7225 163.232H94.7308Z" fill="url(#paint8_linear_1_793)"/>
<path d="M3.3126 56.6553L2.59576 59.0039L3.37029 56.6718L3.3126 56.6553Z" fill="url(#paint9_linear_1_793)"/>
<path d="M55.7329 90.4256C56.013 89.4943 55.6257 88.4972 54.8018 87.9945L3.38681 56.6138L3.37031 56.6797L2.59579 59.0118L0.20629 66.1813C-0.123294 67.1701 0.305207 68.2497 1.22804 68.7359L51.5636 95.5018C52.7501 96.1364 54.225 95.5183 54.604 94.2328L55.7411 90.4338L55.7329 90.4256Z" fill="url(#paint10_linear_1_793)"/>
<path d="M54.0272 80.8501L138.285 104.542L137.387 104.015C128.579 100.381 119.4 97.7354 110.238 95.0984C91.9211 89.8243 55.3951 78.7817 55.3951 78.7817C55.3951 78.7817 55.395 78.7817 55.3868 78.7817C54.5793 78.345 6.07291 52.1641 4.98528 50.4088C4.99352 50.1286 5.03471 49.9226 5.07591 49.7496L1.21979 48.6206L54.0355 80.8584L54.0272 80.8501Z" fill="url(#paint11_linear_1_793)"/>
<path d="M138.285 104.542L140.46 112.544L199.744 48.6121L197.577 40.6104L138.285 104.542Z" fill="url(#paint12_linear_1_793)"/>
<path d="M136.349 103.998L60.0751 82.5477C57.4137 81.7977 54.9583 84.237 55.6834 86.907C56.013 88.1102 56.9523 89.0579 58.1553 89.3958L134.429 110.846C137.09 111.596 139.546 109.157 138.821 106.487C138.491 105.276 137.552 104.336 136.349 103.998Z" fill="url(#paint13_linear_1_793)"/>
<path d="M55.3785 78.7731L53.3681 69.7C39.5915 61.5829 6.02341 41.8134 5.71854 41.6403C4.76275 41.0799 4.83692 41.1376 4.65565 41.014C4.1448 40.6679 3.9553 40.4701 3.83994 40.536C3.65043 40.6432 3.90584 41.4013 4.12831 42.11C4.12831 42.11 4.72158 44.3103 5.33955 47.4253C5.43019 47.895 5.4961 48.34 5.53729 48.7603C5.53729 48.7603 5.53729 48.7603 5.53729 48.7685C5.52081 48.785 5.49607 48.8262 5.45487 48.8839C5.34775 49.0487 5.17475 49.3454 5.06763 49.7409C5.01819 49.914 4.98525 50.1283 4.97701 50.4002C35.6365 67.6563 55.3703 78.7648 55.3785 78.7731Z" fill="url(#paint14_linear_1_793)"/>
<path d="M39.0065 52.914C48.0123 54.7517 56.9688 56.8036 65.9582 58.7072C68.496 59.2429 71.042 59.7703 73.588 60.2812C74.0576 60.3719 74.2637 59.6467 73.7858 59.5561C64.7882 57.7678 55.8399 55.7241 46.8753 53.7958C44.321 53.2437 41.7667 52.708 39.2125 52.1888C38.7428 52.0899 38.5368 52.8234 39.0147 52.914H39.0065Z" fill="url(#paint15_linear_1_793)"/>
<path d="M45.3509 55.7816C44.873 55.6827 44.6753 56.4162 45.1532 56.5068C53.5823 58.2126 62.0196 59.9102 70.4569 61.5749C72.8464 62.0446 75.2359 62.5143 77.6254 62.9758C78.1033 63.0664 78.301 62.3413 77.8231 62.2506C69.3858 60.619 60.9567 58.9378 52.5276 57.2402C50.1299 56.754 47.7404 56.2761 45.3427 55.7899L45.3509 55.7816Z" fill="url(#paint16_linear_1_793)"/>
<path d="M58.559 60.421C56.0377 59.9513 53.5082 59.5063 50.9704 59.0778C50.4925 58.9954 50.2947 59.7206 50.7726 59.803C59.6301 61.2946 68.4712 62.9839 77.1228 65.4397C79.6441 66.1566 82.1489 66.9395 84.6373 67.7965C85.0987 67.9531 85.2882 67.2279 84.835 67.0713C76.2823 64.1129 67.4495 62.0774 58.559 60.421Z" fill="url(#paint17_linear_1_793)"/>
<path d="M66.4196 64.7887C63.6511 64.1212 60.8744 63.5114 58.0811 62.9427C57.6032 62.8439 57.4055 63.5773 57.8833 63.6679C67.6473 65.6375 77.2794 68.2498 86.6972 71.4966C89.4822 72.4526 92.2424 73.4662 94.9862 74.5375C95.4394 74.7105 95.6289 73.9853 95.184 73.8123C85.8073 70.1699 76.2 67.1455 66.4196 64.7887Z" fill="url(#paint18_linear_1_793)"/>
<path d="M93.7667 52.9222C93.5113 53.3754 94.0386 53.738 94.294 53.2848C102.064 40.3551 111.342 30.87 122.877 21.286C126.041 18.6572 129.197 16.0284 132.361 13.3996C132.765 13.0617 132.213 12.7568 131.809 13.0864C120.562 22.4067 109.191 31.1666 100.4 42.6295C97.9607 45.8104 95.7525 49.3457 93.7667 52.9222Z" fill="url(#paint19_linear_1_793)"/>
<path d="M105.253 45.8517C102.773 49.0491 100.523 52.5926 98.4715 56.1691C98.2079 56.6223 98.7352 56.9849 98.9989 56.5317C106.925 43.6432 116.384 34.018 127.837 24.2527C130.985 21.5662 134.141 18.8797 137.288 16.1933C137.692 15.8554 137.14 15.5422 136.736 15.8801C125.555 25.3817 114.143 34.397 105.253 45.8517Z" fill="url(#paint20_linear_1_793)"/>
<path d="M141.672 18.6651C130.556 28.348 119.112 37.6189 110.106 49.0652C107.585 52.2709 105.294 55.8226 103.185 59.4074C102.913 59.8606 103.44 60.2232 103.712 59.77C111.795 46.9226 121.435 37.1491 132.806 27.2108C135.945 24.4666 139.084 21.7225 142.224 18.9783C142.619 18.6322 142.075 18.319 141.672 18.6651Z" fill="url(#paint21_linear_1_793)"/>
<path d="M137.766 30.1694C140.897 27.3675 144.028 24.5657 147.151 21.7638C147.547 21.4095 147.003 21.0963 146.599 21.4507C135.541 31.3231 124.072 40.8329 114.959 52.2875C112.396 55.5097 110.065 59.0697 107.889 62.6461C107.609 63.0994 108.137 63.462 108.417 63.0087C116.656 50.2026 126.478 40.2807 137.766 30.1694Z" fill="url(#paint22_linear_1_793)"/>
<path d="M142.735 33.1359C145.849 30.2763 148.972 27.4168 152.087 24.5572C152.482 24.1946 151.93 23.8815 151.535 24.2441C140.535 34.306 129.049 44.0466 119.812 55.5095C117.208 58.7398 114.835 62.3163 112.594 65.8928C112.306 66.3461 112.833 66.7087 113.122 66.2554C121.518 53.4823 131.512 43.4203 142.735 33.1359Z" fill="url(#paint23_linear_1_793)"/>
<path d="M147.695 36.0945C150.801 33.1773 153.907 30.2601 157.014 27.3428C157.409 26.972 156.857 26.6589 156.462 27.0297C145.52 37.2812 134.017 47.2443 124.665 58.7319C122.02 61.9787 119.606 65.5634 117.299 69.1317C117.002 69.5849 117.53 69.9475 117.826 69.4943C126.379 56.7458 136.547 46.5603 147.695 36.0945Z" fill="url(#paint24_linear_1_793)"/>
<path d="M152.663 39.061C155.761 36.0861 158.859 33.1112 161.958 30.1363C162.353 29.7572 161.801 29.4441 161.406 29.8231C150.513 40.2642 139.01 50.4497 129.527 61.9538C126.84 65.2171 124.385 68.8019 122.02 72.3783C121.715 72.8316 122.243 73.1942 122.548 72.7409C131.257 60.0255 141.598 49.6998 152.672 39.061H152.663Z" fill="url(#paint25_linear_1_793)"/>
<path d="M157.624 42.0197C160.713 38.9871 163.795 35.9546 166.885 32.922C167.28 32.5347 166.728 32.2215 166.333 32.6088C155.481 43.2476 143.987 53.6392 134.371 65.168C131.644 68.4396 129.148 72.0408 126.717 75.6172C126.404 76.0705 126.931 76.4331 127.244 75.9798C136.11 63.2891 146.615 52.8398 157.624 42.0197Z" fill="url(#paint26_linear_1_793)"/>
<path d="M171.268 35.4023C160.458 46.2389 148.972 56.8365 139.233 68.3982C136.464 71.6863 133.927 75.2957 131.43 78.864C131.109 79.3172 131.636 79.6798 131.957 79.2266C140.98 66.5523 151.65 55.9877 162.592 44.9863C165.665 41.896 168.739 38.8058 171.82 35.7155C172.216 35.3199 171.664 35.0068 171.268 35.4023Z" fill="url(#paint27_linear_1_793)"/>
</g>
<defs>
<linearGradient id="paint0_linear_1_793" x1="64.3679" y1="6.45256" x2="163.948" y2="178.903" gradientUnits="userSpaceOnUse">
<stop stop-color="white"/>
<stop offset="1"/>
</linearGradient>
<linearGradient id="paint1_linear_1_793" x1="73.2996" y1="0.436761" x2="134.467" y2="106.364" gradientUnits="userSpaceOnUse">
<stop stop-color="white"/>
<stop offset="1"/>
</linearGradient>
<linearGradient id="paint2_linear_1_793" x1="73.2007" y1="0.502745" x2="128.582" y2="96.4182" gradientUnits="userSpaceOnUse">
<stop stop-color="white"/>
<stop offset="1"/>
</linearGradient>
<linearGradient id="paint3_linear_1_793" x1="112.355" y1="11.4793" x2="153.529" y2="82.7814" gradientUnits="userSpaceOnUse">
<stop stop-color="white"/>
<stop offset="1"/>
</linearGradient>
<linearGradient id="paint4_linear_1_793" x1="75.7797" y1="5.82614" x2="138.166" y2="113.863" gradientUnits="userSpaceOnUse">
<stop stop-color="white"/>
<stop offset="1"/>
</linearGradient>
<linearGradient id="paint5_linear_1_793" x1="154.435" y1="52.9055" x2="172.022" y2="83.3529" gradientUnits="userSpaceOnUse">
<stop stop-color="white"/>
<stop offset="1"/>
</linearGradient>
<linearGradient id="paint6_linear_1_793" x1="63.857" y1="109.157" x2="98.759" y2="169.598" gradientUnits="userSpaceOnUse">
<stop stop-color="white"/>
<stop offset="1"/>
</linearGradient>
<linearGradient id="paint7_linear_1_793" x1="173.682" y1="98.4358" x2="205.123" y2="152.887" gradientUnits="userSpaceOnUse">
<stop stop-color="white"/>
<stop offset="1"/>
</linearGradient>
<linearGradient id="paint8_linear_1_793" x1="82.3137" y1="98.0152" x2="113.771" y2="152.491" gradientUnits="userSpaceOnUse">
<stop stop-color="white"/>
<stop offset="1"/>
</linearGradient>
<linearGradient id="paint9_linear_1_793" x1="2.55457" y1="57.1003" x2="3.38695" y2="58.5423" gradientUnits="userSpaceOnUse">
<stop stop-color="white"/>
<stop offset="1"/>
</linearGradient>
<linearGradient id="paint10_linear_1_793" x1="12.4091" y1="51.4056" x2="41.7977" y2="102.289" gradientUnits="userSpaceOnUse">
<stop stop-color="white"/>
<stop offset="1"/>
</linearGradient>
<linearGradient id="paint11_linear_1_793" x1="40.5144" y1="25.9256" x2="99.003" y2="127.222" gradientUnits="userSpaceOnUse">
<stop stop-color="white"/>
<stop offset="1"/>
</linearGradient>
<linearGradient id="paint12_linear_1_793" x1="160.582" y1="61.9703" x2="177.452" y2="91.1817" gradientUnits="userSpaceOnUse">
<stop stop-color="white"/>
<stop offset="1"/>
</linearGradient>
<linearGradient id="paint13_linear_1_793" x1="81.292" y1="69.0493" x2="113.211" y2="124.333" gradientUnits="userSpaceOnUse">
<stop stop-color="white"/>
<stop offset="1"/>
</linearGradient>
<linearGradient id="paint14_linear_1_793" x1="14.4031" y1="34.4544" x2="43.8493" y2="85.4445" gradientUnits="userSpaceOnUse">
<stop stop-color="white"/>
<stop offset="1"/>
</linearGradient>
<linearGradient id="paint15_linear_1_793" x1="50.2947" y1="45.6704" x2="62.5001" y2="66.7982" gradientUnits="userSpaceOnUse">
<stop stop-color="white"/>
<stop offset="1"/>
</linearGradient>
<linearGradient id="paint16_linear_1_793" x1="55.8482" y1="49.6011" x2="67.1305" y2="69.1467" gradientUnits="userSpaceOnUse">
<stop stop-color="white"/>
<stop offset="1"/>
</linearGradient>
<linearGradient id="paint17_linear_1_793" x1="61.6488" y1="52.8066" x2="73.9532" y2="74.1157" gradientUnits="userSpaceOnUse">
<stop stop-color="white"/>
<stop offset="1"/>
</linearGradient>
<linearGradient id="paint18_linear_1_793" x1="69.3529" y1="56.3254" x2="83.7175" y2="81.2025" gradientUnits="userSpaceOnUse">
<stop stop-color="white"/>
<stop offset="1"/>
</linearGradient>
<linearGradient id="paint19_linear_1_793" x1="109.068" y1="26.2057" x2="117.128" y2="40.181" gradientUnits="userSpaceOnUse">
<stop stop-color="white"/>
<stop offset="1"/>
</linearGradient>
<linearGradient id="paint20_linear_1_793" x1="113.814" y1="29.1065" x2="122.022" y2="43.3125" gradientUnits="userSpaceOnUse">
<stop stop-color="white"/>
<stop offset="1"/>
</linearGradient>
<linearGradient id="paint21_linear_1_793" x1="118.56" y1="31.9987" x2="126.908" y2="46.4519" gradientUnits="userSpaceOnUse">
<stop stop-color="white"/>
<stop offset="1"/>
</linearGradient>
<linearGradient id="paint22_linear_1_793" x1="123.314" y1="34.8913" x2="131.794" y2="49.5835" gradientUnits="userSpaceOnUse">
<stop stop-color="white"/>
<stop offset="1"/>
</linearGradient>
<linearGradient id="paint23_linear_1_793" x1="128.06" y1="37.7836" x2="136.689" y2="52.7231" gradientUnits="userSpaceOnUse">
<stop stop-color="white"/>
<stop offset="1"/>
</linearGradient>
<linearGradient id="paint24_linear_1_793" x1="132.806" y1="40.6764" x2="141.575" y2="55.8547" gradientUnits="userSpaceOnUse">
<stop stop-color="white"/>
<stop offset="1"/>
</linearGradient>
<linearGradient id="paint25_linear_1_793" x1="137.552" y1="43.5687" x2="146.461" y2="58.9943" gradientUnits="userSpaceOnUse">
<stop stop-color="white"/>
<stop offset="1"/>
</linearGradient>
<linearGradient id="paint26_linear_1_793" x1="142.306" y1="46.4615" x2="151.355" y2="62.1261" gradientUnits="userSpaceOnUse">
<stop stop-color="white"/>
<stop offset="1"/>
</linearGradient>
<linearGradient id="paint27_linear_1_793" x1="147.052" y1="49.3539" x2="156.241" y2="65.2656" gradientUnits="userSpaceOnUse">
<stop stop-color="white"/>
<stop offset="1"/>
</linearGradient>
</defs>
</svg>
